<svg width="457" height="391" viewBox="0 0 457 391" fill="none" xmlns="http://www.w3.org/2000/svg">
<path d="M62.1512 263.957C88.6434 263.957 110.12 220.165 110.12 166.145C110.12 112.125 88.6434 68.3332 62.1512 68.3332C35.659 68.3332 14.1828 112.125 14.1828 166.145C14.1828 220.165 35.659 263.957 62.1512 263.957Z" fill="#7B3B3C"/>
<path d="M61.7109 167.16C64.1037 124.583 68.9247 95.8235 68.9731 95.538L67.9271 95.3609C67.8787 95.6467 63.0491 124.452 60.6524 167.084C58.4407 206.431 57.9071 265.945 67.9269 326.024L68.9734 325.85C58.9707 265.873 59.5031 206.449 61.7109 167.16Z" fill="#3F3D56"/>
<path d="M105.024 146.309L61.653 169.508L62.1537 170.443L105.525 147.244L105.024 146.309Z" fill="#3F3D56"/>
<path d="M16.368 157.936L15.8675 158.871L59.2447 182.058L59.7452 181.123L16.368 157.936Z" fill="#3F3D56"/>
<path d="M394.769 253.789C429.138 253.789 457 196.976 457 126.895C457 56.8126 429.138 0 394.769 0C360.4 0 332.538 56.8126 332.538 126.895C332.538 196.976 360.4 253.789 394.769 253.789Z" fill="#7B3B3C"/>
<path d="M394.013 128.194C397.118 72.9492 403.374 35.6332 403.437 35.2626L402.445 35.0947C402.382 35.4655 396.118 72.8253 393.01 128.123C390.141 179.159 389.449 256.354 402.445 334.28L403.437 334.115C390.457 256.285 391.148 179.176 394.013 128.194Z" fill="#3F3D56"/>
<path d="M450.477 101.324L394.21 131.42L394.685 132.306L450.951 102.21L450.477 101.324Z" fill="#3F3D56"/>
<path d="M335.286 116.408L334.811 117.294L391.086 147.375L391.56 146.489L335.286 116.408Z" fill="#3F3D56"/>
<path d="M319.791 288.158C332.632 288.158 343.042 266.931 343.042 240.746C343.042 214.562 332.632 193.335 319.791 193.335C306.95 193.335 296.54 214.562 296.54 240.746C296.54 266.931 306.95 288.158 319.791 288.158Z" fill="#E6E6E6"/>
<path d="M319.771 242.789L319.908 243.046L340.931 231.801L340.456 230.915L319.815 241.956C320.957 220.945 323.293 206.841 323.34 206.563L322.348 206.395C322.297 206.698 319.521 223.448 318.536 247.684L297.717 236.548L297.242 237.434L318.265 248.679L318.516 248.21C317.728 268.214 318.169 293.226 322.348 318.283L323.34 318.118C318.784 290.799 318.684 263.53 319.771 242.789Z" fill="#3F3D56"/>
<path d="M437.603 344.69C313.758 305.511 201.459 307.598 129.06 316.249C50.6255 325.62 0.854393 344.491 0.36101 344.68L0 343.742C0.494856 343.552 50.3831 324.636 128.941 315.25C175.151 309.736 221.774 308.544 268.205 311.69C325.846 315.589 382.816 326.346 437.906 343.732L437.603 344.69Z" fill="#3F3D56"/>
<path d="M159.192 333.618C159.192 333.618 159.54 326.345 166.66 327.19Z" fill="#3F3D56"/>
<path d="M157.181 326.696C159.149 326.696 160.744 325.102 160.744 323.135C160.744 321.168 159.149 319.574 157.181 319.574C155.212 319.574 153.617 321.168 153.617 323.135C153.617 325.102 155.212 326.696 157.181 326.696Z" fill="#7B3B3C"/>
<path d="M157.607 329.132H156.601V336.169H157.607V329.132Z" fill="#3F3D56"/>
<path d="M288.956 335.126C288.956 335.126 289.303 327.852 296.423 328.698Z" fill="#3F3D56"/>
<path d="M286.944 328.204C288.912 328.204 290.508 326.61 290.508 324.643C290.508 322.676 288.912 321.082 286.944 321.082C284.976 321.082 283.38 322.676 283.38 324.643C283.38 326.61 284.976 328.204 286.944 328.204Z" fill="#7B3B3C"/>
<path d="M287.37 330.64H286.364V337.677H287.37V330.64Z" fill="#3F3D56"/>
<path d="M75.1982 322.56C75.1982 322.56 75.5456 315.287 82.6657 316.132Z" fill="#3F3D56"/>
<path d="M73.1864 315.638C75.1545 315.638 76.75 314.044 76.75 312.077C76.75 310.11 75.1545 308.516 73.1864 308.516C71.2183 308.516 69.6228 310.11 69.6228 312.077C69.6228 314.044 71.2183 315.638 73.1864 315.638Z" fill="#7B3B3C"/>
<path d="M73.6125 318.074H72.6066V325.111H73.6125V318.074Z" fill="#3F3D56"/>
<path d="M130.021 313.01C130.021 313.01 130.368 305.737 137.488 306.582Z" fill="#3F3D56"/>
<path d="M128.009 306.088C129.977 306.088 131.573 304.494 131.573 302.527C131.573 300.56 129.977 298.966 128.009 298.966C126.041 298.966 124.445 300.56 124.445 302.527C124.445 304.494 126.041 306.088 128.009 306.088Z" fill="#7B3B3C"/>
<path d="M128.435 308.524H127.429V315.561H128.435V308.524Z" fill="#3F3D56"/>
<path d="M267.328 326.581C267.328 326.581 267.676 319.308 274.796 320.153Z" fill="#3F3D56"/>
<path d="M265.317 319.66C267.285 319.66 268.88 318.065 268.88 316.098C268.88 314.131 267.285 312.537 265.317 312.537C263.349 312.537 261.753 314.131 261.753 316.098C261.753 318.065 263.349 319.66 265.317 319.66Z" fill="#7B3B3C"/>
<path d="M265.743 322.095H264.737V329.132H265.743V322.095Z" fill="#3F3D56"/>
<path d="M421.989 312.001L442.69 342.675L423.417 361.936L420.919 356.943L425.202 346.956C425.202 346.956 424.488 337.682 421.989 335.185C419.491 332.688 408.427 317.708 408.427 317.708L421.989 312.001Z" fill="#FFB8B8"/>
<path d="M395.578 212.843C395.578 212.843 399.503 219.052 391.294 245.803C391.294 245.803 429.584 310.385 423.517 314.666C417.449 318.946 401.03 328.418 396.747 325.565C392.464 322.711 361.314 226.04 361.314 226.04L395.578 212.843Z" fill="#2F2E41"/>
<path d="M438.943 337.147L445.189 343.389C448.401 346.599 450.542 351.236 444.475 355.159C438.407 359.083 417.349 373.707 410.211 369.07C403.073 364.433 418.777 360.153 418.777 360.153C418.777 360.153 421.374 350.531 422.752 352.667C424.131 354.803 424.131 359.083 424.131 359.083L438.943 337.147Z" fill="#2F2E41"/>
<path d="M363.456 328.765C363.456 328.765 352.034 349.809 352.034 352.306C352.034 354.803 352.748 361.936 352.748 361.936L330.977 367.287L323.481 363.72L325.98 357.3C325.98 357.3 339.543 352.663 342.398 343.746C345.253 334.828 348.465 325.555 348.465 325.555L363.456 328.765Z" fill="#FFB8B8"/>
<path d="M376.661 119.392C384.94 119.392 391.652 112.685 391.652 104.411C391.652 96.1376 384.94 89.4305 376.661 89.4305C368.383 89.4305 361.671 96.1376 361.671 104.411C361.671 112.685 368.383 119.392 376.661 119.392Z" fill="#FFB8B8"/>
<path d="M372.735 117.252L379.892 137.802L395.578 130.806C395.578 130.806 384.87 114.398 384.87 112.258L372.735 117.252Z" fill="#FFB8B8"/>
<path d="M370.594 190.372H389.51C389.51 190.372 403.073 211.059 395.221 232.817C394.018 236.149 392.825 240.816 391.633 246.334C388.893 259.024 386.166 276.214 383.37 292.009C379.443 314.197 375.383 333.634 370.969 333.987C362.046 334.7 344.695 334.581 344.695 331.014C344.695 327.448 356.317 224.257 356.317 224.257L358.816 219.977L359.288 201.333C359.363 198.39 360.588 195.595 362.702 193.546C364.816 191.496 367.649 190.357 370.594 190.372V190.372Z" fill="#2F2E41"/>
<path d="M351.856 352.128C351.856 352.128 355.961 359.083 354.89 364.076C353.819 369.07 352.034 368.357 344.182 369.07C336.33 369.783 309.562 369.783 309.562 364.79C309.562 359.796 330.444 353.311 330.532 355.305C330.62 357.3 331.334 361.223 329.192 361.936C327.051 362.65 329.014 362.115 329.014 362.115L351.856 352.128Z" fill="#2F2E41"/>
<path d="M372.738 234.892C372.738 234.892 371.186 260.229 360.83 252.686C350.475 245.143 364.866 231.518 364.866 231.518L372.738 234.892Z" fill="white"/>
<path d="M393.406 201.522C393.904 201.746 394.453 201.831 394.995 201.767C395.538 201.703 396.052 201.492 396.484 201.158C397.11 200.666 397.527 199.956 397.651 199.17C399.148 190.545 400.971 166.633 402.021 154.541C403.338 139.369 396.758 127.617 396.703 127.545L392.825 122.217C392.422 121.66 391.842 121.256 391.18 121.07C390.518 120.884 389.813 120.928 389.179 121.194C389.179 121.194 377.072 133.747 377.028 134.232C376.838 136.313 375.397 140.925 367.886 148.431C359.669 156.643 359.623 163.811 359.805 165.812C359.817 165.944 359.823 166.075 359.823 166.207C359.808 167.104 359.93 167.999 360.185 168.86C363.627 179.705 360.932 192.688 356.603 206.241C356.439 206.853 356.47 207.501 356.69 208.096C356.911 208.69 357.312 209.201 357.836 209.558C359.1 210.417 357.584 209.142 358.035 209.694C361.018 213.347 365.311 208.256 370.222 202.7C371.933 200.765 373.872 198.571 376.157 196.288C379.299 193.148 385.302 200.313 388.093 200.313C389.93 200.335 391.741 200.747 393.406 201.522V201.522Z" fill="#575A89"/>
<path d="M395.071 133.078C395.071 133.078 402.911 139.686 398.457 148.256C394.003 156.826 394.595 163.146 394.595 163.146C394.595 163.146 393.409 222.017 379.491 219.157L373.16 236.625L361.726 232.5L368.337 217.093C368.337 217.093 363.042 216.764 364.589 213.158C365.676 210.626 371.531 183.142 374.921 167.005C376.357 160.167 377.35 155.367 377.35 155.367C377.35 155.367 381.855 131.295 395.071 133.078Z" fill="#575A89"/>
<path opacity="0.2" d="M396.715 162.995L392.307 191.901L394.685 160.993L396.715 162.995Z" fill="black"/>
<path d="M360.307 97.7736C360.307 97.7736 357.786 78.1732 378.349 84.6007C378.349 84.6007 393.035 81.9077 397.851 100.266L402.728 119.51L400.351 118.217L399.243 120.638L395.392 121.612L393.744 118.343L392.947 122.313L361.403 125.456C361.403 125.456 375.531 117.106 375.755 102.141L373.064 104.983L360.307 97.7736Z" fill="#2F2E41"/>
<path opacity="0.2" d="M383.765 293.137L390.798 246.298L385.078 296.862L383.765 293.137Z" fill="black"/>
<path d="M395.26 92.7192C399.641 92.7192 403.192 89.1703 403.192 84.7926C403.192 80.4148 399.641 76.8659 395.26 76.8659C390.879 76.8659 387.328 80.4148 387.328 84.7926C387.328 89.1703 390.879 92.7192 395.26 92.7192Z" fill="#2F2E41"/>
<path d="M387.087 82.852C387.217 80.8409 388.11 78.9551 389.583 77.5786C391.056 76.2022 392.998 75.4386 395.015 75.4434C394.851 75.4227 394.689 75.3974 394.522 75.3867C393.482 75.3194 392.439 75.4574 391.453 75.7929C390.466 76.1285 389.556 76.655 388.773 77.3423C387.99 78.0297 387.351 78.8644 386.891 79.7988C386.431 80.7332 386.16 81.749 386.093 82.7882C386.027 83.8273 386.165 84.8695 386.501 85.855C386.838 86.8406 387.365 87.7503 388.053 88.5321C388.741 89.314 389.577 89.9527 390.512 90.4117C391.448 90.8707 392.464 91.1411 393.504 91.2073C393.671 91.2181 393.835 91.2138 394 91.2142C392 90.9609 390.171 89.955 388.886 88.4014C387.602 86.8478 386.958 84.8632 387.087 82.852V82.852Z" fill="#2F2E41"/>
<path opacity="0.2" d="M372.625 172.003L365.646 209.381L374.691 168.096L372.625 172.003Z" fill="black"/>
<path d="M373.06 115.207L368.992 118.271C364.803 116.165 361.662 111.291 360.52 106.639L364.952 104.404C365.3 109.149 368.671 112.303 373.06 115.207Z" fill="white"/>
<path d="M374.749 105.079H364.614C364.525 105.079 364.439 105.043 364.375 104.98C364.312 104.917 364.276 104.831 364.276 104.741C364.276 104.652 364.312 104.566 364.375 104.503C364.439 104.439 364.525 104.404 364.614 104.404H374.749C374.838 104.404 374.924 104.439 374.988 104.503C375.051 104.566 375.087 104.652 375.087 104.741C375.087 104.831 375.051 104.917 374.988 104.98C374.924 105.043 374.838 105.079 374.749 105.079V105.079Z" fill="white"/>
<path d="M372.722 115.207C372.667 115.207 372.612 115.193 372.564 115.168C372.515 115.142 372.473 115.104 372.442 115.059C372.411 115.013 372.392 114.96 372.386 114.905C372.38 114.851 372.388 114.795 372.409 114.744L375.111 107.992C375.127 107.951 375.152 107.913 375.183 107.881C375.214 107.849 375.251 107.824 375.291 107.806C375.332 107.789 375.376 107.779 375.42 107.779C375.465 107.778 375.509 107.787 375.55 107.803C375.591 107.819 375.629 107.844 375.661 107.875C375.693 107.906 375.718 107.943 375.735 107.984C375.753 108.025 375.762 108.069 375.762 108.113C375.763 108.157 375.755 108.201 375.738 108.243L373.035 114.995C373.01 115.057 372.967 115.111 372.911 115.149C372.855 115.187 372.789 115.207 372.722 115.207V115.207Z" fill="white"/>
<path d="M375.431 109.068C376.799 109.068 377.909 107.515 377.909 105.6C377.909 103.685 376.799 102.132 375.431 102.132C374.062 102.132 372.952 103.685 372.952 105.6C372.952 107.515 374.062 109.068 375.431 109.068Z" fill="#FFB8B8"/>
<path d="M200.777 116.047L227.175 122.084L238.329 101.061L215.756 92.2537L200.777 116.047Z" fill="#2F2E41"/>
<path d="M214.802 229.215C214.802 229.215 206.316 248.649 206.316 254.303C206.316 254.303 209.675 269.673 208.615 273.913L204.902 281.864L197.124 278.683L195.002 257.483L195.356 223.562L214.802 229.215Z" fill="#FFB9B9"/>
<path d="M219.575 112.965C219.575 112.965 220.283 124.626 218.868 128.159C217.454 131.693 224.172 138.406 224.172 138.406L234.779 124.626C234.779 124.626 227.708 117.559 229.475 109.785L219.575 112.965Z" fill="#FFB9B9"/>
<path d="M197.477 193.704C197.477 193.704 187.224 212.785 197.124 211.372C207.024 209.958 203.665 193.174 203.665 193.174" fill="#E6E6E6"/>
<path d="M203.665 193.174L207.023 159.783L206.847 139.466L199.068 140.879V159.606L197.477 193.704" fill="#FFB9B9"/>
<path d="M195.179 276.21L210.383 270.203L212.15 300.237C212.15 300.237 215.333 309.424 214.272 312.958C214.272 312.958 214.979 318.965 213.211 319.318C211.443 319.671 206.493 320.378 206.14 320.025C205.786 319.671 205.786 318.611 205.786 318.611C205.786 318.611 202.25 321.085 201.897 323.911C201.897 323.911 187.047 328.505 186.693 324.265C186.34 320.025 194.118 316.491 194.118 316.491L200.129 307.304L195.179 276.21Z" fill="#2F2E41"/>
<path d="M246.447 229.215C246.447 229.215 237.961 248.649 237.961 254.303C237.961 254.303 241.32 269.673 240.259 273.913L236.547 281.864L228.768 278.683L226.647 257.483L227 223.562L246.447 229.215Z" fill="#FFB9B9"/>
<path d="M227.354 276.21L242.557 270.203L244.325 300.237C244.325 300.237 247.507 309.424 246.447 312.958C246.447 312.958 247.154 318.965 245.386 319.318C243.618 319.671 238.668 320.378 238.315 320.025C237.961 319.671 237.961 318.611 237.961 318.611C237.961 318.611 234.425 321.085 234.072 323.911C234.072 323.911 219.222 328.505 218.868 324.265C218.515 320.025 226.293 316.491 226.293 316.491L232.304 307.304L227.354 276.21Z" fill="#2F2E41"/>
<path d="M234.428 104.84C234.427 107.623 233.399 110.307 231.541 112.38C229.683 114.453 227.126 115.768 224.358 116.074C221.591 116.38 218.807 115.656 216.541 114.04C214.274 112.424 212.684 110.029 212.073 107.314C211.887 106.503 211.794 105.673 211.796 104.84C211.798 101.842 212.991 98.9678 215.113 96.8487C217.235 94.7295 220.112 93.5391 223.112 93.5391C226.112 93.5391 228.989 94.7295 231.111 96.8487C233.233 98.9678 234.426 101.842 234.428 104.84V104.84Z" fill="#FFB9B9"/>
<path d="M224.525 127.452L233.305 122.896L237.254 126.039C237.254 126.039 246.8 125.686 250.336 129.926C253.872 134.166 255.816 144.943 255.816 144.943C255.816 144.943 244.149 142.469 245.563 152.363L243.441 146.71L241.497 151.48L217.808 159.607L207.2 141.586C207.2 141.586 200.129 139.466 197.654 144.413C197.654 144.413 198.184 126.569 205.079 126.039C209.716 125.683 213.211 125.686 213.211 125.686L217.1 124.979L219.591 124.096L224.525 127.452Z" fill="#575A89"/>
<path d="M239.552 166.144C239.552 166.144 258.115 221.795 252.811 229.569C252.811 229.569 233.011 239.462 193.411 226.035L209.499 163.67C219.38 161.651 229.398 162.475 239.552 166.144Z" fill="#2F2E41"/>
<path d="M239.552 166.144L244.776 148.202C238.509 141.391 243.918 126.289 243.918 126.289L236.357 124.669C236.357 124.669 228.768 145.12 220.99 142.646C213.211 140.173 217.454 124.272 217.454 124.272L210.383 124.979L207.2 137.346L209.499 163.67C219.083 162.849 229.136 163.805 239.552 166.144Z" fill="#575A89"/>
<path d="M248.745 193.174L251.22 159.606L251.927 139.466L244.149 140.879V159.606L242.557 193.704" fill="#FFB9B9"/>
<path d="M242.557 193.704C242.557 193.704 232.304 212.785 242.204 211.372C252.104 209.958 248.745 193.174 248.745 193.174" fill="white"/>
<path d="M255.816 144.943C255.816 144.943 254.56 126.797 244.05 126.86V147.845C244.05 147.845 251.927 143.176 255.816 144.943Z" fill="#575A89"/>
<path d="M226.73 107.758C226.67 107.758 226.612 107.74 226.563 107.705C226.514 107.67 226.477 107.622 226.458 107.565C226.438 107.509 226.436 107.448 226.452 107.39C226.469 107.333 226.503 107.282 226.55 107.244L232.32 102.631C232.35 102.607 232.384 102.589 232.42 102.578C232.457 102.568 232.495 102.564 232.533 102.568C232.571 102.572 232.607 102.584 232.641 102.602C232.674 102.621 232.704 102.645 232.727 102.675C232.751 102.705 232.769 102.739 232.779 102.775C232.79 102.812 232.793 102.85 232.789 102.888C232.784 102.926 232.773 102.962 232.754 102.996C232.735 103.029 232.711 103.058 232.681 103.082L226.91 107.695C226.859 107.736 226.796 107.758 226.73 107.758Z" fill="white"/>
<path d="M227.167 114.678C227.04 114.834 226.913 114.989 226.78 115.134C225.249 115.827 223.583 116.171 221.902 116.141C220.221 116.11 218.568 115.706 217.063 114.957C215.559 114.208 214.24 113.134 213.202 111.812C212.165 110.49 211.436 108.953 211.067 107.314L216.535 106.309L227.167 107.314C224.732 110.278 225.026 111.305 227.167 114.678Z" fill="white"/>
<path d="M216.723 89.0123C216.723 89.0123 210.875 90.1116 209.523 97.4003C209.311 98.6294 209.273 99.8821 209.408 101.122C209.543 102.525 209.347 105.488 206.299 108.977C204.31 111.24 202.457 113.619 200.749 116.101V116.101L206.859 117.727L209.589 107.609C210.913 102.704 212.952 98.0203 215.641 93.7087L215.697 93.6187C215.697 93.6187 217.727 99.038 223.166 99.7809L221.489 97.5741C221.489 97.5741 227.848 101.248 231.451 102.37C231.862 102.498 232.23 102.736 232.516 103.058C232.802 103.38 232.995 103.773 233.073 104.197C233.152 104.62 233.113 105.056 232.962 105.459C232.811 105.862 232.552 106.216 232.214 106.483C232.189 106.503 232.163 106.524 232.136 106.544C229.487 108.555 224.081 113.354 226.216 117.997C228.352 122.64 225.861 123.486 225.861 123.486L230.454 121.74L232.556 120.841L232.344 122.394L242.605 122.609C242.605 122.609 245.378 122.592 240.453 115.195C240.453 115.195 239.264 112.421 240.24 110.302C241.023 108.698 241.413 106.93 241.377 105.145C241.067 97.6874 237.923 82.5158 216.723 89.0123Z" fill="#2F2E41"/>
<path d="M72.7761 301.437C72.7761 301.437 72.7761 349.42 61.7566 362.005C61.7566 362.005 59.3953 368.298 58.6082 370.658C58.1681 372.001 57.6423 373.315 57.034 374.591V377.737C57.034 377.737 35.7822 375.377 33.4208 369.871L37.3564 365.152C37.3564 365.152 38.1435 364.365 37.3564 362.005C36.5693 359.645 38.9306 359.645 38.9306 359.645L44.4403 347.06L43.6532 295.144L47.5887 223.564L81.4343 221.991L72.7761 301.437Z" fill="#2F2E41"/>
<path d="M55.4598 373.018C55.4598 373.018 60.9695 389.536 55.4598 390.323C49.95 391.109 1.93664 391.896 2.72374 385.603C3.51085 379.31 19.2529 380.097 19.2529 380.097L35.7822 369.871L55.4598 373.018Z" fill="#2F2E41"/>
<path d="M104.26 223.564C104.26 223.564 105.835 233.79 99.5377 244.802C93.2408 255.814 97.1763 292.785 97.1763 292.785L153.061 341.554C153.061 341.554 142.041 360.432 138.106 359.645C134.17 358.859 71.989 308.516 71.989 308.516L47.5887 226.71L104.26 223.564Z" fill="#2F2E41"/>
<path d="M152.293 339.469C152.293 339.469 169.204 343.662 166.919 348.734C164.634 353.806 139.595 394.754 134.698 390.721C129.801 386.688 138.893 373.821 138.893 373.821L139.099 354.395L152.293 339.469Z" fill="#2F2E41"/>
<path d="M91.6665 77.2576C91.6728 81.4016 90.2474 85.4207 87.631 88.6357C85.5623 91.198 82.8315 93.1459 79.7344 94.2685C76.6374 95.3911 73.292 95.6456 70.0606 95.0044C68.4426 94.6919 66.8766 94.1534 65.4088 93.4047C63.0776 92.2305 61.0282 90.566 59.4015 88.5254C57.7748 86.4849 56.6092 84.1168 55.9848 81.5836C55.6331 80.1685 55.4564 78.7157 55.4588 77.2576C55.4588 72.4593 57.3662 67.8574 60.7613 64.4645C64.1565 61.0715 68.7612 59.1654 73.5627 59.1654C78.3641 59.1654 82.9689 61.0715 86.364 64.4645C89.7592 67.8574 91.6665 72.4593 91.6665 77.2576V77.2576Z" fill="#A0616A"/>
<path d="M87.8073 83.6397L87.0066 106.92L71.7739 112.935C71.7739 112.935 70.2801 89.0973 68.1714 87.7757C66.0627 86.4541 87.8073 83.6397 87.8073 83.6397Z" fill="#A0616A"/>
<path d="M68.0535 115.8C68.0535 115.8 89.3053 94.5615 94.8151 95.3481C100.325 96.1347 100.325 98.4945 100.325 100.068C100.325 101.641 98.7506 102.427 100.325 103.214C101.899 104.001 103.473 103.214 103.473 105.574C103.473 107.934 117.641 131.532 112.918 157.489C108.196 183.447 102.686 196.033 105.047 210.192C107.409 224.35 105.835 227.497 105.835 227.497C105.835 227.497 46.8016 232.216 46.0146 226.71C45.2275 221.204 48.3759 224.35 44.4403 220.417C40.5048 216.484 42.079 216.484 42.079 214.125C42.079 211.765 59.3953 115.8 68.0535 115.8Z" fill="#575A89"/>
<path d="M79.0729 222.777C79.0729 222.777 69.6277 245.589 62.5437 240.082C55.4598 234.576 65.6921 215.698 65.6921 215.698L79.0729 222.777Z" fill="white"/>
<path d="M101.899 117.373C101.899 117.373 120.392 119.489 113.507 153.434C106.622 187.38 79.86 226.71 79.86 226.71L61.7566 218.058L85.3697 171.648L79.86 142.544C79.86 142.544 76.7116 115.013 101.899 117.373Z" fill="#575A89"/>
<path opacity="0.2" d="M85.7635 172.042L59.7887 215.304L62.1501 217.664L85.7635 172.042Z" fill="black"/>
<path opacity="0.2" d="M99.5119 192.202L78.6793 226.317H85.7635L99.5119 192.202Z" fill="black"/>
<path opacity="0.2" d="M52.4534 254.198L51.407 254.597L72.1196 308.869L73.1661 308.47L52.4534 254.198Z" fill="black"/>
<path d="M68.1651 120.119C68.7835 120.119 69.2848 119.618 69.2848 119C69.2848 118.382 68.7835 117.881 68.1651 117.881C67.5467 117.881 67.0453 118.382 67.0453 119C67.0453 119.618 67.5467 120.119 68.1651 120.119Z" fill="#D0CDE1"/>
<path d="M58.6475 150.331C58.7671 150.331 58.8835 150.293 58.9798 150.222C59.076 150.151 59.1469 150.051 59.1822 149.937L68.6997 119.165C68.7216 119.095 68.7294 119.021 68.7227 118.948C68.716 118.874 68.6949 118.803 68.6606 118.738C68.6264 118.673 68.5796 118.615 68.523 118.568C68.4664 118.521 68.401 118.486 68.3307 118.464C68.2604 118.442 68.1865 118.435 68.1133 118.442C68.04 118.448 67.9688 118.47 67.9037 118.504C67.8387 118.538 67.781 118.585 67.7341 118.642C67.6872 118.699 67.6519 118.764 67.6303 118.834L58.1128 149.607C58.087 149.691 58.0813 149.779 58.096 149.865C58.1107 149.952 58.1454 150.033 58.1974 150.104C58.2494 150.174 58.3172 150.232 58.3954 150.271C58.4735 150.311 58.5599 150.331 58.6475 150.331V150.331Z" fill="#D0CDE1"/>
<path d="M69.9329 91.1141L65.4088 95.4153C60.7494 93.0721 56.249 86.7581 54.9789 81.5836L60.9148 79.0976C61.3023 84.3754 65.051 87.8842 69.9329 91.1141Z" fill="white"/>
<path d="M71.0609 81.3507C71.043 81.3508 71.0251 81.3496 71.0073 81.3471L60.4862 79.845C60.4373 79.8381 60.3903 79.8216 60.3478 79.7965C60.3053 79.7714 60.2682 79.7382 60.2386 79.6988C60.2089 79.6593 60.1873 79.6144 60.175 79.5667C60.1628 79.5189 60.16 79.4692 60.1669 79.4204C60.1739 79.3715 60.1904 79.3245 60.2155 79.2821C60.2406 79.2396 60.2738 79.2025 60.3133 79.1729C60.3528 79.1433 60.3977 79.1217 60.4454 79.1094C60.4932 79.0971 60.543 79.0944 60.5919 79.1013L71.113 80.6034C71.2071 80.6167 71.2927 80.6652 71.3524 80.739C71.4122 80.8128 71.4418 80.9066 71.4352 81.0013C71.4286 81.096 71.3863 81.1848 71.3168 81.2496C71.2474 81.3145 71.1559 81.3506 71.0609 81.3507V81.3507Z" fill="white"/>
<path d="M69.5572 91.1141C69.4915 91.1142 69.427 91.097 69.3701 91.0644C69.3131 91.0318 69.2658 90.9849 69.2326 90.9282C69.1995 90.8716 69.1818 90.8073 69.1813 90.7417C69.1809 90.6762 69.1976 90.6116 69.2298 90.5545L72.7158 84.3526C72.7399 84.3095 72.7723 84.2716 72.8111 84.241C72.8499 84.2104 72.8944 84.1878 72.942 84.1744C72.9895 84.161 73.0393 84.1572 73.0884 84.163C73.1374 84.1689 73.1849 84.1844 73.2279 84.2086C73.271 84.2328 73.3089 84.2653 73.3393 84.3042C73.3698 84.3431 73.3923 84.3876 73.4056 84.4352C73.4188 84.4827 73.4225 84.5325 73.4165 84.5815C73.4105 84.6305 73.3948 84.6779 73.3705 84.7208L69.8845 90.9227C69.8519 90.9808 69.8043 91.0291 69.7468 91.0628C69.6893 91.0964 69.6238 91.1141 69.5572 91.1141V91.1141Z" fill="white"/>
<path d="M81.757 88.1276C80.2914 87.3532 78.589 87.1935 77.0026 86.7122C71.3273 84.9901 67.5253 78.5785 68.7391 72.7765C68.9634 72.0323 69.0641 71.2564 69.0372 70.4797C68.825 68.7613 67.0656 67.6526 65.3785 67.2589C63.6913 66.8651 61.8962 66.9223 60.2837 66.2892C57.7939 65.3117 56.14 62.7546 55.7815 60.1054C55.423 57.4562 56.2096 54.7543 57.489 52.4065L58.0984 54.159C59.0278 53.3728 59.7177 52.3416 60.0896 51.1828C60.7822 51.2991 61.4333 51.5912 61.9805 52.031C62.5278 52.4708 62.953 53.0437 63.2152 53.6948C64.1934 54.2712 64.3343 51.9039 65.4148 51.5547C65.8673 51.4084 66.3325 51.6862 66.7635 51.8871C68.9407 52.9019 71.4703 52.0343 73.8058 51.4717C77.8501 50.5023 82.0659 50.4973 86.1124 51.4573C88.8008 52.0981 91.4618 53.214 93.3855 55.1971C94.9653 56.8257 95.9496 58.9317 96.7878 61.0397C98.851 66.2289 100.214 71.8439 99.533 77.3862C98.9657 81.9215 97.0671 86.1874 94.0766 89.6456C92.5188 91.4393 87.4361 97.6971 84.6492 96.6303C81.1474 95.2897 85.883 90.3077 81.757 88.1276Z" fill="#2F2E41"/>
</svg>
