<svg width="137" height="234" viewBox="0 0 137 234" fill="none" xmlns="http://www.w3.org/2000/svg">
<path d="M105 234C105 234 107 225.833 121 228.556C135 231.278 137 234 137 234H105Z" fill="#3F3D56"/>
<path d="M37 223C37 223 39 214.833 53 217.556C67 220.278 69 223 69 223H37Z" fill="#3F3D56"/>
<path d="M101 215C101 215 90.5 208.25 86 215H101Z" fill="#3F3D56"/>
<path d="M39.0965 208.317C42.4536 214.392 49.5786 217 49.5786 217C49.5786 217 51.2607 209.758 47.9035 203.683C44.5464 197.608 37.4214 195 37.4214 195C37.4214 195 35.7393 202.242 39.0965 208.317Z" fill="#3F3D56"/>
<path d="M41.5851 206.613C47.6603 210.345 50 217.758 50 217.758C50 217.758 42.49 219.12 36.4149 215.387C30.3397 211.655 28 204.242 28 204.242C28 204.242 35.51 202.88 41.5851 206.613Z" fill="#7B3B3C"/>
<path d="M129 111.057C129 159.934 100.122 177 64.5 177C28.8776 177 0 159.934 0 111.057C0 62.1795 64.5 0 64.5 0C64.5 0 129 62.1795 129 111.057Z" fill="#F2F2F2"/>
<path d="M62.3671 169.081L63.0386 128.282L91 77.808L63.1441 121.882L63.4458 103.537L82.7171 67.0192L63.5258 98.6823L64.0694 65.6882L84.7048 36.6154L64.1545 60.5L64.4938 0L62.3611 80.0906L62.5361 76.7869L41.5558 45.0994L62.2 83.1294L60.2451 119.978L60.1867 119L36 85.6538L60.1136 122.455L59.869 127.064L59.8254 127.133L59.8454 127.511L54.8856 221H61.5121L62.3071 172.711L86.3615 136L62.3671 169.081Z" fill="#3F3D56"/>
</svg>
