<svg width="240" height="185" viewBox="0 0 240 185" fill="none" xmlns="http://www.w3.org/2000/svg">
<path fill-rule="evenodd" clip-rule="evenodd" d="M74.8175 83.7579C75.6908 92.5753 76.5642 101.393 77.4372 110.21C82.1919 107.497 86.9466 104.784 91.7011 102.071V122.159V127.438C91.7011 127.906 91.4238 129.51 91.7011 129.915C91.9364 130.258 93.6786 130.268 94.0905 130.326C96.7787 130.702 99.4735 131.037 102.172 131.335C109.284 132.12 116.896 133.246 124.036 132.343C130.241 131.559 136.258 129.351 141.927 126.783C143.918 125.881 145.881 124.916 147.807 123.885C148.215 123.666 149.698 123.15 149.92 122.705C150.101 122.341 149.676 121.064 149.619 120.682C149.38 119.07 149.14 117.459 148.9 115.848L145.554 93.3505L151.875 99.6627C152.37 100.157 153.311 101.561 153.996 101.78C154.498 101.941 155.742 101.444 156.239 101.348C159.818 100.658 163.398 99.9684 166.977 99.2789C167.811 99.1182 169.69 99.1243 170.393 98.6206C170.771 98.3491 170.789 97.797 170.923 97.2738C171.796 93.8536 172.669 90.4337 173.542 87.014C173.699 86.398 174.576 84.4557 174.353 83.8352C174.273 83.613 173.886 83.4609 173.649 83.3159C168.247 80.0164 162.845 76.7169 157.443 73.4174C154.484 71.6101 151.524 69.8025 148.565 67.9952C147.326 67.2378 145.803 65.8736 144.398 65.45C143.526 65.1871 142.258 65.3841 141.355 65.3582C139.522 65.3059 137.689 65.2536 135.855 65.2013C135.568 65.1933 134.562 64.9886 134.321 65.1577C134.12 65.2984 134.203 65.4945 134.137 65.8299C133.976 66.6493 133.975 67.5327 133.895 68.3643C133.831 69.0315 133.958 70.2553 133.657 70.8594C133.465 71.2455 133.709 71.0917 133.449 71.2783C133.139 71.5005 132.151 71.429 131.783 71.4716C129.986 71.6805 128.19 71.8891 126.393 72.0977C124.257 72.3458 122.097 72.8114 119.951 72.5969C116.697 72.2721 113.189 72.2882 109.994 71.6029C109.164 71.4246 108.865 70.9568 108.224 70.3173C106.975 69.0691 105.737 67.8063 104.473 66.5714C103.854 65.9662 104.119 66.0688 103.481 66.2983C102.68 66.5859 101.869 67.2801 101.145 67.7212C98.3696 69.4115 95.5947 71.102 92.8194 72.7922L75.8778 83.1121C75.5242 83.3273 75.171 83.5426 74.8175 83.7579Z" fill="#FF5678"/>
<path fill-rule="evenodd" clip-rule="evenodd" d="M236.863 84.854C233.371 98.1129 226.347 112.57 212.196 116.796C208.755 117.824 205.408 118.599 201.835 118.208C201.495 118.171 201.21 118.219 200.887 118.225C200.307 118.236 200.808 118.444 200.158 118.243C199.651 118.087 199.177 117.696 198.648 117.523C197.244 117.063 195.747 116.974 194.32 116.603C190.814 115.691 187.2 114.565 183.802 113.307C182.202 112.714 180.732 111.889 179.227 111.096C177.697 110.29 176.076 109.789 174.529 109.049C173.307 108.465 171.212 107.703 170.353 106.606C169.436 105.436 170.704 102.947 171.067 101.704C172.299 97.4732 173.767 93.3048 174.693 88.9901C177.892 92.6971 182.331 94.9928 186.927 96.4733C189.421 97.2769 191.986 97.8576 194.58 98.2211C196.935 98.551 199.475 98.9504 201.836 98.482C203.618 98.1282 205.855 97.3091 207.127 95.9491C207.582 95.4634 208.126 94.5734 207.872 93.8681C207.549 92.9727 206.608 93.3941 206.098 92.726C205.655 92.1439 205.724 90.7827 205.583 90.074C205.333 88.8196 204.989 87.5997 204.569 86.3924C203.755 84.048 202.741 81.6983 202.498 79.2037C202.286 77.0395 202.779 74.9928 203.859 73.1148C204.369 72.227 205.65 69.8117 206.901 69.9121C208.274 70.0222 206.422 75.8096 206.361 76.9903C206.121 81.6702 206.749 86.6569 209.151 90.7588C210.07 92.3294 211.4 94.1582 213.363 94.3528C215.443 94.5587 217.12 92.9227 218.11 91.2672C220.525 87.2284 219.307 81.6863 218.084 77.4534C216.584 72.2598 212.668 68.6802 210.192 64.0159C213.889 64.3875 215.868 66.7361 217.765 69.7157C219.855 72.996 221.48 76.9344 222.282 80.7512C222.687 82.6798 222.408 84.6162 222.41 86.5637C222.411 87.2106 222.411 89.5973 223.466 89.5033C224.593 89.4029 224.98 86.7111 225.145 85.8898C225.525 84.0062 225.937 82.1224 226.267 80.2297C226.851 76.8807 227.11 73.4508 227.81 70.1248C227.928 69.5627 228.163 68.003 229.005 68.4241C229.654 68.7484 229.549 71.1609 229.573 71.7216C229.631 73.1034 229.714 74.4852 229.725 75.8683C229.741 77.9184 229.332 80.0406 229.533 82.0782C229.664 83.4096 230.379 84.8807 231.264 83.0853C232.143 81.3045 232.322 79.0838 232.812 77.1689C233.326 75.1582 233.857 73.1181 234.949 71.3322C235.252 70.8369 235.578 70.0503 236.251 70.2834C236.74 70.453 237.101 71.6123 237.253 72.0214C237.935 73.8708 237.819 75.9267 237.776 77.8625C237.724 80.2348 237.469 82.5541 236.863 84.854ZM168.762 88.2948C168.575 88.2344 167.783 88.1593 167.586 88.1421C167.356 88.1221 167.617 87.6974 167.059 87.8181C167.167 88.0851 167.358 88.2631 167.633 88.3524C166.795 88.6361 166.176 87.9355 165.603 87.8453C165.054 87.7591 165.031 87.8453 164.489 88.4247C163.903 87.7093 164.013 88.1555 163.53 88.1557C163.355 88.156 163.347 88.4211 163.062 88.3894C162.812 88.3616 162.786 87.9833 162.639 87.9388C161.838 87.6965 161.015 88.9153 160.107 87.8581C159.887 88.9582 157.367 87.5803 156.398 87.7736C155.381 87.9758 155.82 88.3401 154.998 87.7174C154.216 87.1241 154.434 87.5183 153.524 88.0039C153.545 87.9925 153.01 88.3538 153.059 88.3596C152.429 88.2859 152.465 87.6345 151.667 87.669C150.822 87.7057 150.462 88.368 149.689 87.553C149.521 88.1632 149.486 87.9004 149.09 88.0542C148.872 88.106 148.681 88.0487 148.518 87.8826C148.468 88.0503 148.359 88.1532 148.191 88.1911C147.759 88.2297 146.949 88.2898 146.558 88.082C145.97 87.7702 146.442 87.6504 146.034 87.2996C145.852 88.2667 145.451 88.0612 144.606 88.1516C143.962 88.2205 143.82 88.0228 143.204 87.9266C142.598 87.832 141.814 88.0673 141.223 88.1674C140.978 88.2091 140.652 88.3794 140.403 88.3196C140.179 88.2656 140.083 88.0918 139.949 88.0461C139.787 87.9916 139.821 87.8495 139.541 87.7805C139.347 87.7335 139.001 87.9149 138.807 87.9463C137.428 88.1702 136.104 88.1724 134.789 87.6301C135.437 88.7685 133.275 88.1538 132.889 87.6824C132.407 88.4372 131.824 87.9043 130.854 87.9633C129.918 88.02 128.512 88.3065 128.133 87.1419C128.059 87.3784 127.528 88.0656 127.317 88.1705C126.704 88.4742 126.631 88.0247 126.061 87.8417C125.285 87.5925 125.447 88.0656 124.966 88.1616C124.154 88.3243 123.715 87.7524 122.997 87.4484C122.967 87.921 122.951 88.2116 122.543 88.5059C122.181 87.1884 120.89 88.6138 121.111 86.853C120.62 87.1728 119.929 87.4187 119.789 88.0656C120.61 87.8395 119.876 88.3766 119.842 88.3944C119.733 88.4511 119.367 87.9363 119.281 87.8637C119.258 88.1065 119.235 88.3496 119.212 88.5924C118.885 88.4289 118.577 88.1357 118.312 87.9889C118.072 87.8567 118.415 87.5814 118.011 87.5625C117.798 87.5522 117.575 88.0139 117.352 88.0534C117.009 88.1132 117.174 87.6226 117.031 87.639C116.812 87.664 116.457 87.983 116.292 87.9769C115.751 87.9569 116.117 87.7052 115.705 87.5897C114.967 87.3834 115.015 87.8656 114.485 88.0395C113.272 88.4378 113.393 86.6054 112.16 87.8275C111.864 88.1199 111.674 88.5715 111.27 88.5462C110.432 88.4937 110.726 87.501 110.897 87.0148C111.073 87.1016 107.837 88.7637 107.862 88.6987C107.883 88.3001 108.392 87.9927 107.937 87.6387C107.565 88.4366 107.174 88.4506 106.316 88.5991C105.899 88.6714 105.817 88.7679 105.371 88.5946C105.087 88.4845 104.896 88.0311 104.613 88.0061C104.651 88.0097 104.133 88.4044 104.054 88.4397C103.586 88.6508 103.289 88.4116 102.835 88.4984C102.447 88.5724 102.294 88.9023 101.908 88.8119C101.393 88.6914 101.696 88.0765 100.987 88.2481C100.745 88.3068 100.599 88.7735 100.218 88.8697C99.623 89.0205 98.894 88.7395 98.2654 88.8861C97.7664 89.0027 97.3962 89.0519 96.9598 89.0761C96.6074 89.0958 96.7523 88.8216 96.1035 89.1453L95.8284 88.4517C95.5035 88.744 95.1787 89.0358 94.8538 89.3281C94.7923 89.0661 94.7531 88.801 94.7367 88.5323C94.2522 89.0177 93.6423 89.1006 92.9909 89.1442C92.2858 89.1915 91.7604 89.345 91.0742 89.4741C90.8573 89.5147 90.2985 89.5798 90.1202 89.5038C90.1464 89.515 89.7865 89.3653 89.895 89.3937C89.8482 89.2986 89.8048 89.2018 89.7648 89.1033C89.7042 88.8297 89.5072 88.8177 89.1746 89.0672C89.0024 89.0408 88.6687 88.8149 88.497 88.8705C88.0545 89.0141 88.1146 89.3573 87.6738 89.3069C87.3876 89.2741 87.2416 88.8514 86.9437 88.8227C86.4878 88.779 86.0926 89.2891 85.6818 89.4004C86.9309 89.0613 84.0619 89.3245 84.9539 89.3478C84.369 89.3325 83.7618 89.3036 83.2214 89.5656C82.9227 89.3614 83.2854 88.9509 82.9836 88.7821C82.7099 88.6288 82.6888 89.0335 82.6568 89.0424C82.8295 88.9935 82.7433 89.3378 82.5706 89.399C82.0324 89.5898 81.6015 89.1047 81.5737 88.6236C81.1165 89.3119 80.988 89.0352 80.3155 89.0778C79.6521 89.1198 79.08 89.4674 78.4164 89.461C77.1038 89.4485 76.2133 88.9924 75.7752 87.8206C77.1737 87.9911 78.5813 87.0916 79.9489 87.3035C80.3983 87.3731 80.679 87.7107 81.0728 87.6506C81.5579 87.5769 81.8967 87.0477 82.5188 86.9906C83.8909 86.8652 85.2434 86.9873 86.6249 86.777C88.2751 86.5256 89.997 86.3768 91.663 86.4992C92.9505 86.594 93.993 86.1017 95.2985 86.0069C96.9865 85.8839 98.6884 85.8622 100.379 85.7735C102.117 85.6823 103.986 85.405 105.719 85.494C106.26 85.5215 106.725 85.5747 107.262 85.5424C107.489 85.5288 107.704 85.3744 107.942 85.3975C108.253 85.4275 108.386 85.7451 108.708 85.734C109.254 85.7154 109.839 85.2648 110.489 85.2526C111.558 85.2323 112.622 85.2348 113.694 85.1739C114.637 85.1202 115.648 84.8999 116.587 84.9119C117.25 84.9202 117.413 85.4845 117.799 85.5429C118.494 85.6475 122.005 83.6491 122.309 85.4428C124.137 84.1915 126.589 85.2509 128.624 85.0159C131.238 84.7138 133.9 84.9831 136.532 84.8754C139.21 84.7661 141.966 84.8674 144.633 85.1199C145.738 85.2245 146.806 85.3227 147.914 85.2592C148.408 85.2309 148.979 85.1049 149.473 85.2186C149.592 85.2465 150.508 85.8859 150.395 85.9042C150.895 85.4551 150.557 85.3891 151.437 85.366C152.116 85.3482 152.757 85.4948 153.432 85.5349C154.643 85.6064 155.863 85.4386 157.072 85.4756C158.081 85.5065 159.067 85.6553 160.082 85.6625C161.175 85.6706 162.466 85.7015 163.258 86.5829C163.174 86.3061 163.091 86.0294 163.007 85.7527C164.227 85.8481 165.433 86.2836 166.667 86.08C166.355 86.379 166.038 86.6232 165.919 87.0618C166.584 86.9773 167.035 86.5128 167.735 86.5092C168.324 86.5056 168.446 86.8007 169.067 86.4193C169.144 86.8866 169.22 87.3539 169.297 87.8209C170.157 87.6184 169.592 86.977 169.655 86.3988C170.354 86.6087 170.947 86.3676 170.671 87.3733C170.458 88.1488 169.49 88.5309 168.762 88.2948ZM167.553 96.9325C167.253 97.7753 164.659 97.2938 164.045 97.2046C163.252 97.09 162.345 96.9078 161.615 96.8174C161.528 96.7006 161.423 96.6016 161.301 96.5201C161.209 96.648 161.093 96.739 160.952 96.7921C160.617 96.8655 160.616 97.2115 160.175 97.135C160.155 97.6471 160.51 97.3561 160.783 97.5419C160.096 98.0022 160.41 97.4724 160.025 97.4807C159.93 97.3453 159.797 97.2922 159.626 97.3214C159.409 97.3776 159.209 97.4705 159.026 97.6001C158.854 97.7814 158.707 97.7906 158.585 97.6284C158.468 97.5105 158.325 97.4376 158.155 97.4101C157.479 97.52 157.29 97.8201 156.528 97.7711C155.44 97.701 154.262 97.9878 153.191 97.8368C152.527 97.7433 151.418 96.7 151.116 97.7169C150.657 96.9631 149.926 96.4503 149.487 95.6801C151.534 95.5616 153.58 95.4206 155.629 95.3466C157.423 95.2821 159.386 95.484 161.062 95.3995C162.633 95.3202 164.296 95.1466 165.899 95.0034C167.599 94.8515 168.161 95.2245 167.553 96.9325ZM114.144 97.0569C114.888 97.2627 115.596 96.7963 116.317 96.9437C116.555 96.9923 117.048 97.4262 117.157 97.4349C117.355 97.4507 117.939 97.0246 118.189 96.9676C119.773 96.6071 121.691 96.6455 123.274 96.8669C124.113 96.984 124.242 96.6002 124.974 96.4138C125.735 96.2197 126.817 96.369 127.618 96.3156C129.504 96.1894 131.388 96.2792 133.261 96.1412C135.184 95.9997 137.097 95.9232 139.02 95.8242C140.33 95.7569 143.479 95.0095 144.564 95.9822C145.46 96.784 144.306 98.1764 143.411 98.4943C142.741 98.7312 142.42 98.2314 141.923 98.2793C141.356 98.3335 141.554 99.0024 141.049 98.3819C140.735 98.9991 138.767 98.736 138.203 98.7769C136.973 98.8656 135.933 99.1123 135.096 97.9655C135.153 98.296 135.21 98.6269 135.267 98.9576C134.157 98.3647 132.966 98.5543 132.003 98.7613C131.526 98.8636 130.062 99.5709 129.545 99.2658C129.19 99.0561 129.816 98.6973 129.216 98.5182C128.902 98.4242 128.359 98.9462 127.975 98.9201C126.912 98.8469 127.214 98.1321 126.17 99.0419C125.816 98.736 125.698 98.2159 125.745 97.77C124.987 98.4169 125.05 99.4953 123.694 99.2978C123.188 99.2244 123.096 98.709 122.832 98.6139C122.271 98.4111 122.207 98.7755 121.721 99.0639C121.537 99.1726 121.314 99.3476 121.097 99.3696C120.654 99.4138 120.583 99.2099 120.522 99.2166C120.227 99.2491 119.855 99.3993 119.504 99.292C119.19 99.1957 119.098 98.6406 118.544 98.7705C118.013 98.8948 118.009 99.255 118.105 99.7943C117.582 99.74 117.266 99.4488 116.874 99.1331C116.479 100.055 115.648 99.2914 115.188 100.069C114.589 99.3534 114.204 99.5503 113.461 98.8517C113.497 99.1432 113.534 99.4346 113.57 99.7264C112.99 99.6146 112.732 99.2055 112.237 99.7467C111.757 98.852 110.3 100.127 109.552 99.2627C109.219 100.357 107.012 100.095 106.081 100.114C105.255 100.131 104.644 100.064 103.837 100.255C103.124 100.425 102.136 100.601 101.465 100.523C101.027 100.472 100.548 100.392 100.002 100.451C99.2152 100.537 98.5355 100.944 97.7203 100.751C96.4929 100.461 95.7405 98.8489 97.1075 98.1408C98.0432 97.6562 99.7287 97.8356 100.758 97.7461C102.465 97.5978 104.377 97.2872 106.086 97.4285C107.419 97.5386 108.633 97.2207 109.993 97.0864C111.017 96.9854 112.695 96.8032 113.363 97.8178C113.619 97.5216 113.593 96.9042 114.144 97.0569ZM95.4643 110.946C95.281 110.033 103.082 109.531 103.857 109.471C105.482 109.346 107.113 109.256 108.742 109.215C110.082 109.181 111.332 109.437 112.672 109.231C113.923 109.039 115.433 108.646 116.522 109.531C116.683 108.32 121.379 108.91 122.272 108.913C126.161 108.927 129.883 108.937 133.644 108.696C135.794 108.558 138.077 108.373 140.227 108.48C141.197 108.529 141.978 108.787 142.943 108.563C143.572 108.417 144.25 108.112 144.851 108.543C145.555 109.047 145.856 110.757 145.371 111.471C145.018 111.991 144.705 111.934 144.141 111.844C143.273 111.706 142.629 111.505 141.744 111.858C141.887 111.8 141.151 111.965 141.212 111.96C140.21 112.035 138.835 112.735 137.972 111.928C138.318 111.989 138.821 111.371 138.385 111.32C138.057 111.282 137.849 111.633 137.594 111.751C136.719 112.153 136.272 112.027 135.75 111.183C134.697 112.095 134.583 111.842 134.121 110.72C133.765 110.994 133.688 111.643 133.408 111.855C133.366 111.887 133.539 112.281 133.337 112.265C133.149 112.249 133.088 111.942 132.943 111.918C132.851 111.902 132.803 111.632 132.715 111.616C132.619 111.598 132.521 111.77 132.412 111.765C132.123 111.752 131.296 112.367 131.593 111.503C131.154 112.061 130.965 111.705 130.807 111.198C130.301 111.583 129.795 111.967 129.288 112.352C129.053 111.698 128.648 111.876 128.138 112.104C128.292 111.65 128.196 111.22 127.81 111.536C127.587 111.719 127.437 112.3 127.209 112.546C126.285 111.611 125.949 111.867 124.672 111.989C124.185 112.035 123.579 112.125 123.144 111.831C122.761 111.572 122.544 110.623 121.89 111.39C122.036 111.219 121.807 112.53 121.767 112.738C121.478 112.543 121.233 112.304 121.031 112.02C120.654 112.766 119.665 112.097 118.855 112.249C117.579 112.489 116.263 112.893 115.136 111.944C115.057 112.25 114.134 112.641 114.132 112.653C114.187 112.11 114.529 112.301 113.83 112.198C113.701 112.179 113.555 112.41 113.434 112.435C113.017 112.522 112.53 112.44 112.11 112.428C110.361 112.378 108.761 112.765 107.035 112.906C106.453 112.953 105.763 113.045 105.217 112.826C104.654 112.6 104.669 112.343 104.1 112.489C104.28 112.443 103.744 113.006 103.773 112.985C103.697 113.04 103.377 112.766 103.264 112.786C103.231 112.906 103.198 113.026 103.165 113.146C103.027 113.129 102.89 113.112 102.753 113.096C102.378 113.146 102.039 112.766 101.686 112.753C101.751 112.756 100.735 113.134 100.781 113.157C100.071 112.803 100.275 112.906 99.3749 113.121C98.5238 113.325 97.6766 113.277 96.8035 113.404C94.2639 113.773 95.7769 112.501 95.4643 110.946ZM93.2214 123.643C92.7439 122.966 94.0144 122.731 94.4205 122.672C95.0877 122.573 95.9733 122.769 96.418 122.663C97.0953 122.502 97.7492 122.117 98.5115 122.013C99.4739 121.881 100.444 121.86 101.41 121.778C101.732 121.75 102.13 121.639 102.444 121.658C102.91 121.686 103.104 121.933 103.48 121.934C104.122 121.938 104.913 121.533 105.57 121.458C106.412 121.363 107.262 121.318 108.108 121.276C109.89 121.188 111.653 121.225 113.435 121.223C114.247 121.221 116.41 120.378 116.815 121.324C117.378 120.607 118.823 120.705 119.628 120.684C121.047 120.648 122.451 120.511 123.868 120.445C125.081 120.388 126.437 120.648 127.629 120.466C128.286 120.366 128.504 120.156 129.248 120.251C129.802 120.321 130.645 120.029 131.12 120.158C131.096 120.151 131.713 120.534 131.52 120.546C131.732 120.532 131.72 120.68 131.954 120.614C132.261 120.528 132.12 120.141 132.757 120.004C133.749 119.79 135.074 120.038 136.105 119.983C137.106 119.93 138.105 119.907 139.107 119.911C139.568 119.913 140.139 119.803 140.587 119.893C140.807 119.937 141.274 120.224 141.461 120.195C141.989 120.113 142.258 119.746 142.971 119.769C143.78 119.795 144.509 119.784 145.313 119.722C146.092 119.662 146.217 119.551 146.603 120.199C146.986 120.842 147.091 121.679 146.387 122.116C146.845 122.086 147.407 122.699 146.868 123.038C146.535 123.248 145.867 122.775 145.468 122.808C144.977 122.851 144.591 123.111 144.056 123.127C143.494 123.144 142.923 123.285 142.369 123.296C141.791 123.307 141.354 123.049 140.806 123.159C140.324 123.256 140.273 123.651 139.693 123.304C139.404 123.132 139.356 122.493 138.962 122.487C138.435 122.479 138.645 123.16 138.342 123.475C138.261 122.501 137.508 124.113 137.209 122.931C136.934 123.323 135.913 123.873 135.419 123.557C134.968 123.27 135.118 122.619 134.93 122.15C134.618 122.993 133.779 123.867 133.855 122.333C133.448 122.834 132.347 122.755 132.623 123.632C132.291 123.626 132.213 123.152 131.934 123.116C131.692 123.086 131.501 123.271 131.464 123.268C131.596 123.279 131.069 123.454 131.061 123.456C131.418 123.384 130.032 123.26 130.268 123.262C129.947 123.26 129.553 123.523 129.177 123.522C128.835 123.521 128.494 123.386 128.156 123.348C127.279 123.248 127.462 123.44 126.911 123.715C126.707 123.817 126.656 123.99 126.367 123.969C126.153 123.952 126.073 123.674 126.049 123.672C125.749 123.641 125.971 123.54 125.504 123.587C125.451 123.679 125.397 123.771 125.344 123.863C125.175 124.078 124.957 124.132 124.689 124.025C123.998 124.173 121.709 124.814 121.933 123.626C121.583 123.798 121.232 123.969 120.881 124.141C120.731 123.183 118.825 124.453 118.4 124.517C117.853 124.599 117.803 124.389 117.287 124.278C117.194 124.258 117.007 124.565 116.789 124.521C116.222 124.407 116.121 124.35 116.024 123.735C115.62 124.49 115.285 124.153 114.552 124.277C114.39 124.304 114.286 124.623 114.054 124.568C113.886 124.529 113.882 124.222 113.766 124.183C113.662 124.147 113.677 123.905 113.524 123.871C113.348 123.831 112.749 124.322 112.577 124.398C112.189 124.569 111.552 124.852 111.174 124.767C110.706 124.663 110.914 124.316 110.253 124.355C109.209 124.416 108.774 125.304 108.125 123.905C107.832 124.465 107.869 124.617 107.399 124.802C107.051 124.939 106.171 124.796 105.713 124.779C103.758 124.707 101.836 125.373 99.8967 125.199C99.0444 125.122 98.3258 124.952 97.4658 125.091C96.5621 125.238 95.6782 125.453 94.7615 125.54C94.2953 125.584 93.3213 125.718 93.0924 125.122C92.8913 124.597 93.642 124.24 93.2214 123.643ZM97.0558 145.153C94.5198 146.85 92.4196 149.166 90.091 151.128C87.7567 153.095 85.904 155.281 83.8046 157.459C81.8635 159.472 80.0802 161.377 77.7335 162.898C76.2486 163.861 74.9238 165.046 73.3985 165.954C72.256 166.634 70.5251 167.528 71.0825 165.449C71.6538 163.317 72.7085 161.163 73.6244 159.173C74.9266 156.343 76.2386 153.54 77.6473 150.765C78.1769 149.722 78.4731 148.684 79.3128 147.853C80.2265 146.949 80.8662 145.768 81.8666 144.914C86.0753 141.321 92.4179 144.097 97.0558 145.153ZM105.011 146.371C103.86 146.974 102.573 147.124 101.354 147.523C100.315 147.862 99.349 148.466 98.2317 148.511C99.2489 147.747 100.122 146.71 101.269 146.13C102.559 145.478 103.73 145.953 105.011 146.371ZM155.501 151.397C151.27 149.969 147.33 147.865 143.209 146.172C142.498 145.88 136.934 144.047 137.047 143.175C140.946 142.461 144.961 141.235 148.869 142.572C152.425 143.788 155.317 146.704 158.069 149.144C158.787 149.781 163.228 152.681 162.831 153.605C162.556 154.245 160.416 154.071 159.91 153.94C159.257 153.77 158.882 153.373 158.37 152.938C157.514 152.211 156.566 151.756 155.501 151.397ZM147.69 127.544C148.333 126.953 148.717 126.056 149.331 125.51C150.12 124.808 151.393 125.15 152.255 125.514C154.842 126.608 157.054 128.446 159.625 129.586C162.475 130.851 164.941 132.54 167.512 134.281C169.861 135.873 172.401 137.19 174.799 138.709C177.243 140.257 179.978 141.263 182.455 142.756C184.976 144.276 187.488 145.801 189.91 147.476C194.23 150.462 198.728 153.528 201.924 157.773C203.567 159.956 205.105 162.431 206.31 164.881C207.406 167.109 208.594 170.201 207.174 172.518C205.811 174.743 203.486 176.496 201.519 178.156C200.774 178.785 200.065 179.549 199.1 179.822C197.925 180.153 196.554 180.061 195.346 180.159C188.887 180.683 182.87 180.188 176.505 179.033C170.367 177.92 164.204 177.296 158.019 176.522C154.531 176.085 151.042 175.576 147.601 174.849C146.129 174.538 144.632 174.18 143.193 173.756C141.936 173.386 140.878 172.572 139.586 172.249C134.099 170.879 127.822 170.355 122.391 168.051C127.197 166.053 132.305 164.847 137.231 163.187C142.416 161.44 147.48 159.974 152.944 159.478C155.756 159.223 158.273 158.505 160.978 157.753C163.556 157.037 166.247 156.817 168.895 156.496C170.072 156.353 173.433 156.567 173.823 155.028C174.404 152.736 171.102 152.472 169.695 152.677C167.698 152.968 166.051 153.467 164.523 151.828C162.963 150.156 161.447 148.443 159.858 146.791C156.913 143.729 153.877 140.187 149.713 138.813C144.633 137.137 138.743 138.728 133.675 139.681C128.321 140.688 122.977 141.652 117.724 143.115C115.548 143.721 112.743 145.056 110.485 144.842C108.26 144.63 105.74 144.266 103.59 143.624C102.617 143.334 101.817 142.796 100.947 142.295C99.8146 141.642 98.5741 141.224 97.3729 140.717C94.9436 139.692 92.5753 138.747 89.9545 138.344C87.7472 138.005 85.4034 137.803 83.2645 138.577C81.166 139.336 79.3067 140.882 77.8426 142.533C76.2522 144.327 74.9377 146.337 73.6344 148.341C73.0086 149.303 72.2448 150.142 71.5965 151.082C71.0525 151.872 70.7348 152.75 70.1591 153.517C68.8705 155.234 67.9955 157.431 67.2148 159.429C66.347 161.647 65.3833 164.286 65.5905 166.7C65.6686 167.612 65.7504 168.821 66.1034 169.667C66.5523 170.743 67.1923 170.715 68.1148 171.121C69.6999 171.818 70.1444 173.745 72.1928 173.37C74.1142 173.017 75.7805 171.434 77.1823 170.172C79.0093 168.528 80.758 166.793 82.5063 165.066C84.3003 163.293 86.0681 161.326 87.4952 159.24C88.057 158.419 88.4951 157.492 89.159 156.744C90.0045 155.791 90.9538 155.677 92.1022 155.298C102.142 151.98 112.231 148.78 122.585 146.59C125.065 146.065 127.566 145.388 130.003 144.69C132.587 143.949 133.926 144.732 136.059 146.142C140.515 149.088 145.782 151.163 150.743 153.086C152.306 153.691 154.793 153.73 156.015 154.923C148.775 156.027 141.876 158.15 134.893 160.265C131.45 161.307 127.968 162.211 124.512 163.208C121.055 164.205 117.73 165.497 114.32 166.622C110.927 167.741 107.341 168.197 103.915 169.229C100.417 170.283 96.9342 171.007 93.3441 171.648C89.7192 172.295 86.1196 173.041 82.4821 173.62C80.8167 173.885 79.1515 174.16 77.5046 174.525C75.8931 174.882 74.3361 175.737 72.7166 175.935C65.4837 176.82 58.3927 178.791 51.1879 179.906C45.8085 180.738 36.4495 181.899 32.9612 176.502C29.4533 171.074 33.7569 164.743 37.5968 160.862C39.9832 158.45 42.6647 156.327 45.4781 154.439C48.4891 152.418 51.3862 150.236 54.3978 148.217C61.2132 143.65 68.6035 139.926 75.9257 136.256C79.4402 134.495 82.8359 132.605 86.2547 130.672C87.9516 129.713 88.8906 131.261 90.2321 132.313C91.287 133.141 93.2242 135.181 94.7003 134.238C94.757 134.578 94.814 134.917 94.8708 135.258C95.303 135.06 95.7358 134.863 96.168 134.666C96.4584 135.428 96.4244 135.901 97.2357 136.301C97.7339 136.547 98.7972 136.842 99.2722 136.41C99.369 136.71 99.4658 137.011 99.5629 137.312C99.9781 137.28 100.058 136.092 100.137 135.814C100.848 136.853 101.832 137.722 103.083 138.015C103.089 137.948 102.88 137.094 102.889 137.088C103.285 136.846 103.784 137.884 103.994 138.106C104.689 138.842 105.104 138.728 105.873 138.134C105.929 138.194 106.189 138.873 106.226 138.861C106.393 138.808 106.708 138.207 106.743 138.152C106.695 138.943 108.222 139.102 108.762 138.932C108.641 138.701 108.52 138.469 108.399 138.237C110.277 137.986 111.015 139.982 112.818 139.881C114.151 139.806 113.082 139.514 113.837 138.943C114.496 138.444 114.613 139.536 114.678 139.501C114.804 139.369 114.901 139.218 114.97 139.047C115.214 139.982 117.156 140.82 116.955 139.283C117.719 139.589 118.262 140.096 119.107 140.203C120.135 140.333 121.232 140.115 122.258 140.03C124.466 139.846 126.549 139.396 128.54 138.384C129.721 137.784 130.977 137.239 132.087 136.516C133.016 135.91 134.778 134.07 136.014 134.862C135.698 133.928 137.188 134.794 137.236 133.591C137.475 133.771 137.715 133.951 137.954 134.132C138.098 133.817 138.058 133.321 138.25 133.047C138.514 132.67 138.643 132.892 138.868 132.68C139.12 132.443 139.34 131.807 139.642 131.626C139.954 131.44 140.32 131.662 140.655 131.5C141.165 131.252 143.358 128.833 142.987 130.906C143.931 130.585 143.203 130.292 143.321 129.663C143.558 128.404 144.134 129.31 144.707 129.42C145.647 129.6 145.628 128.823 146.152 128.259C146.63 127.743 147.53 127.513 147.22 126.617C147.574 126.808 147.649 127.182 147.69 127.544ZM91.057 100.641C90.3169 101.465 89.7626 101.113 88.9398 100.992C88.8517 100.697 88.7012 100.656 88.4887 100.869C88.2448 101.009 87.9828 101.101 87.7019 101.145C87.0271 101.312 86.3262 101.241 85.6662 101.493C85.6851 101.272 85.9174 100.879 85.7686 100.655C85.0743 101.135 84.6441 101.44 83.7916 101.449C83.101 101.456 81.8886 100.929 81.3151 101.56C81.2973 101.314 81.2795 101.069 81.2622 100.823C80.9813 100.963 80.7368 101.15 80.5291 101.385C80.4896 101.021 80.4679 100.746 80.2273 100.452C79.7709 101.39 79.2711 101.413 78.3846 101.054C78.509 101.104 77.4974 100.511 77.5361 100.676C77.2162 99.3281 82.2646 99.4394 82.7947 99.3862C84.1184 99.2525 85.4417 99.1749 86.7673 99.0528C88.0245 98.9373 88.9629 98.7412 89.8329 99.7901C89.4452 98.2751 93.1135 98.3502 91.057 100.641ZM33.1734 77.1452C33.3125 79.4357 33.8223 81.8702 32.9317 84.0747C32.2158 85.8467 30.7876 87.8478 29.2489 89.0043C26.0985 91.3721 23.4284 88.4748 22.9898 85.2907C22.5328 81.9695 23.4387 77.9115 26.2985 75.8639C28.0073 74.6404 29.6619 74.7252 31.6292 75.1274C32.0912 75.2219 32.8413 75.1855 33.1055 75.6447C33.1676 75.7521 33.1119 77.143 33.1734 77.1452ZM75.0151 107.662C74.4707 107.937 73.9014 108.098 73.4216 108.471C73.255 108.601 73.1983 108.897 73.0214 109.006C72.6996 109.205 72.2396 109.073 71.9041 109.237C71.349 109.509 70.951 109.897 70.2912 110.147C69.3114 110.518 68.4522 111.028 67.526 111.51C65.9829 112.315 64.3266 113.006 62.7135 113.661C61.8991 113.991 59.647 114.636 59.7249 115.828C59.5427 115.877 59.3567 115.479 58.9762 115.511C58.4541 115.554 57.7643 116.158 57.2223 116.306C56.2082 116.584 55.4233 116.608 55.4233 117.901C55.1007 117.682 55.0186 117.145 54.5892 117.074C54.1058 116.994 53.9025 117.516 53.5158 117.678C53.0605 117.869 52.4943 117.686 52.0434 117.889C51.8462 118.097 51.627 118.28 51.3859 118.435C51.1406 118.463 50.8964 118.456 50.6536 118.412C49.6962 118.615 48.8154 118.975 47.8558 119.162C46.9207 119.345 46.2802 119.411 46.6735 120.517C45.673 120.713 45.4288 119.651 44.3002 120.04C42.9167 120.515 41.6237 120.858 40.1796 121.148C39.4431 121.296 38.6735 121.626 37.9317 121.704C37.4024 121.759 36.9085 121.57 36.3872 121.629C35.7592 121.699 35.2544 121.99 34.6044 122.001C33.9878 122.012 33.3406 121.901 32.7351 121.792C32.8207 122.036 32.9278 122.27 33.0563 122.494C32.6377 122.407 32.4444 121.903 32.0895 121.829C31.7171 121.751 31.3833 122.135 31.0732 122.05C30.9411 122.013 31.029 121.606 30.7928 121.528C30.5773 121.458 30.4866 121.541 30.273 121.508C30.2018 121.497 29.3087 121.448 29.1663 121.524C28.9177 121.655 29.1694 121.902 29.1199 121.939C28.2799 122.561 28.2696 122.225 27.8952 121.576C27.3454 120.623 26.6823 121.224 25.683 121.057C24.569 120.872 23.6915 121.363 22.5954 121.293C21.413 121.218 20.0235 120.333 18.978 119.816C16.7207 118.7 14.5192 117.645 12.6235 115.955C8.91732 112.651 5.90235 108.589 4.12468 103.938C2.21465 98.9418 1.85271 93.7309 2.00602 88.4303C2.09825 85.2423 2.35341 82.0563 2.85589 78.9058C3.2018 76.7386 3.27426 72.8873 5.71766 71.9005C6.13765 76.9747 4.8122 82.1455 5.64813 87.187C5.89984 88.7056 6.51368 90.7288 7.67545 91.8535C9.39543 93.5182 9.79789 91.1117 9.95337 89.7825C10.2429 87.3135 10.7808 84.8585 11.1619 82.4011C11.5423 79.9452 11.8113 77.4615 12.3403 75.0311C12.5333 74.145 14.0892 67.6558 15.2312 67.9632C15.0001 72.684 14.3865 77.3235 14.3624 82.0615C14.3529 83.962 14.1827 85.9693 14.4569 87.8573C14.5982 88.8288 15.483 91.6797 17.0046 91.4419C18.4128 91.2219 16.8647 89.2138 16.7332 88.4394C16.3849 86.3896 16.8288 83.8394 17.1534 81.8048C17.7681 77.9543 19.139 74.0109 21.3797 70.7932C23.3867 67.912 26.4768 65.169 30.1996 65.6772C31.79 65.8944 33.031 66.2894 33.8301 67.7418C34.4573 68.8816 36.9274 70.1769 35.4958 71.604C34.1928 72.9031 32.0851 71.8632 30.6365 71.5533C28.8629 71.1742 26.9621 71.6304 25.4788 72.6698C22.9339 74.4523 21.4837 77.6398 21.0103 80.6291C20.3723 84.6596 22.0778 95.2098 28.3594 92.8454C32.5326 91.2745 35.6758 85.6239 35.3253 81.2978C35.1849 79.5661 34.5079 76.2786 36.9037 75.811C39.9732 75.2122 40.4068 78.5957 40.0959 80.7946C39.6442 83.9929 37.9537 86.967 36.0198 89.4958C34.3343 91.6997 32.374 93.0779 30.3459 94.8983C29.7454 95.437 28.2137 96.6486 28.471 97.651C28.753 98.7493 31.16 99.0617 32.1237 99.2422C36.8918 100.135 42.2687 99.3136 47.0286 98.6906C56.8117 97.4093 66.466 94.2541 74.488 88.4531C74.812 92.0424 75.2206 95.6197 75.3711 99.2221C75.4439 100.971 75.4626 102.745 75.6626 104.484C75.7858 105.554 76.2305 107.048 75.0151 107.662ZM47.8884 120.169C47.5043 120.37 47.9195 119.155 47.8127 119.557C48.3865 119.763 48.4118 119.967 47.8884 120.169ZM88.4712 76.7308C89.0809 76.0588 90.7466 74.4604 91.2753 75.9773C91.472 75.3307 91.4976 74.3728 92.2569 75.2461C92.5592 74.1734 95.8943 74.2738 96.7204 74.2265C99.3654 74.0752 102.021 73.9943 104.657 73.7314C110.073 73.1916 115.583 73.4702 121.019 73.4524C122.196 73.4485 123.37 73.3849 124.538 73.5556C125.666 73.7203 126.851 74.1825 128 74.0137C129.022 73.8635 129.692 73.5818 130.744 73.7022C132.003 73.8466 133.224 73.9492 134.494 73.9445C140.11 73.9239 145.723 74.1514 151.341 74.1603C152.435 74.162 153.747 73.9481 154.774 74.4131C155.155 74.5856 155.57 75.1591 155.861 75.2219C156.194 75.294 155.996 74.7744 156.442 75.0092C157.039 75.3232 156.577 76.2891 156.182 76.4421C156.419 76.3506 155.756 76.2602 155.822 76.2566C155.508 76.2736 155.24 76.5147 154.902 76.4997C154.387 76.4772 153.957 76.1634 153.542 75.8872C153.535 76.0001 153.763 76.752 153.503 76.7898C153.279 76.8226 153.07 76.0814 153.047 75.9089C151.79 77.0173 150.459 76.3996 148.9 76.5397C147.794 76.6396 145.487 77.3772 144.716 76.2227C144.684 76.4683 144.585 76.6833 144.42 76.8677C144.2 77.2034 144.009 77.175 143.848 76.7812C143.794 76.7837 143.256 76.9005 143.246 76.8996C142.868 76.8696 142.377 76.7339 141.993 76.7011C141.398 76.6502 141.507 77.0835 141.033 77.0904C140.774 77.0941 140.114 76.7202 139.662 76.6969C138.88 76.656 138.081 76.9878 137.31 76.8874C136.778 76.8184 136.298 76.3859 135.777 76.3692C135.128 76.3475 134.917 76.8429 134.403 76.1473C134.297 76.1186 134.232 76.5278 134.19 76.535C134.2 76.5331 133.7 76.607 133.641 76.6301C133.539 76.6693 133.139 76.8524 133.017 76.8543C132.755 76.8593 132.612 76.6713 132.334 76.6668C131.873 76.6591 130.403 77.0646 130.444 76.2124C128.8 76.8215 127.397 76.5842 125.71 76.728C124.936 76.7945 124.45 76.6908 123.714 76.5486C122.791 76.3706 122.179 76.5942 121.259 76.6396C120.375 76.683 120.096 76.3089 119.35 75.9712C119.056 75.838 118.862 75.6625 118.5 75.7365C118.295 75.7788 118.441 76.1253 118.38 76.149C118.063 76.2713 117.842 76.1417 117.407 76.1715C116.604 76.226 116.285 76.8969 115.46 76.2672C115.734 76.2341 116.008 76.2001 116.283 76.167C115.494 75.8324 114.452 75.6619 114.643 76.8799C113.971 76.7853 114.553 76.3272 114.222 76.1631C113.891 75.9996 113.521 76.2736 113.104 76.409C112.004 76.7659 111.087 76.5887 109.94 76.5247C108.636 76.4518 105.587 77.5154 104.654 76.1348C104.625 76.4257 104.313 77.2362 103.897 77.1981C103.762 77.1856 104.14 76.325 104.182 76.2341C103.968 76.6899 102.991 76.7764 102.51 77.0128C102.564 76.7678 102.618 76.523 102.672 76.2783C102.225 76.7542 102.007 76.4638 101.481 76.6229C101.251 76.6924 100.919 77.1666 100.722 77.1953C100.493 76.9297 100.205 76.8154 99.8583 76.8524C99.6274 76.7948 99.3968 76.7834 99.1663 76.8187C98.2431 76.8857 97.4015 77.3986 96.4831 77.0493C95.6882 76.7464 95.3809 75.9676 94.9069 77.2067C94.782 76.9864 94.6574 76.7661 94.5328 76.5459C94.379 76.785 94.2252 77.024 94.0711 77.2629C93.4698 76.869 93.4328 76.641 92.7408 76.7856C92.5784 76.8504 92.4118 76.8412 92.2413 76.7583C92.2004 76.8799 92.1598 77.0009 92.1189 77.1221C92.1028 77.427 92.0121 77.5279 91.8474 77.4242C91.7089 77.3744 91.5841 77.299 91.4725 77.1975C91.0147 77.2326 90.4298 77.353 89.9383 77.2865C89.7487 77.2612 88.5596 76.6335 88.4712 76.7308ZM102.483 68.5306C102.537 68.6135 102.591 68.6961 102.645 68.779C101.901 69.1714 101.726 68.9461 101.65 68.1579C102.013 68.1648 102.075 68.8037 102.483 68.5306ZM102.944 68.068C103.302 68.226 103.712 68.5361 104.049 68.1206C104.276 68.7803 102.59 69.6807 102.944 68.068ZM105.255 68.3595C106.007 68.8674 104.204 68.4591 104.207 68.4599C104.531 68.1607 104.881 68.1273 105.255 68.3595ZM111.719 65.527C111.977 66.8276 112.688 66.7906 113.835 66.1859C115.509 65.3042 115.791 63.8604 115.908 62.1363C116.02 60.483 116.222 59.843 117.927 60.1882C119.117 60.4291 120.123 60.2266 121.323 60.1935C122.603 60.1582 123.054 60.3537 123.157 61.671C123.26 62.9899 123.495 63.9914 124.452 64.9952C125.425 66.0157 126.723 66.6251 127.987 67.1961C128.637 67.4892 129.248 67.8049 129.967 67.8686C130.246 67.8934 131.697 67.7098 131.727 68.169C131.75 68.5142 129.741 69.4876 129.528 69.6036C128.596 70.1104 127.666 70.5651 126.648 70.8722C124.307 71.5787 121.823 71.6204 119.398 71.5775C115.487 71.5088 110.081 69.8545 107.743 66.3848C109.068 66.0989 110.394 65.8129 111.719 65.527ZM111.369 54.2653C110.75 53.7461 110.349 52.9615 109.835 52.3465C109.576 52.0364 109.386 51.9376 109.139 51.7824C108.879 51.6189 108.733 51.8503 108.516 51.4659C107.956 50.473 109.684 49.0756 107.851 48.6935C107.231 48.5639 105.739 49.0553 105.558 48.1667C105.302 46.9104 107.7 46.8283 108.264 46.1906C109.386 44.9228 108.624 42.7737 109.308 41.3112C109.954 39.9259 111.624 39.6797 112.942 39.2633C114.778 38.6837 116.636 38.3474 118.5 37.8835C119.804 37.5592 121.97 36.2564 123.179 37.4076C121.313 37.8218 122.398 38.472 123.641 38.8389C125.05 39.255 126.542 39.4171 128.002 39.5331C129.504 39.6522 131.035 39.675 132.52 39.3754C133.892 39.0984 135.425 37.9052 136.865 38.2109C136.066 39.5996 133.687 40.3581 132.241 40.7219C131.505 40.9071 131.033 40.8493 131.132 41.7677C131.228 42.6577 132.002 43.5502 132.177 44.4775C132.408 45.7046 132.206 46.8325 131.769 47.9865C131.339 49.1221 131.239 49.2703 131.615 50.3553C132.2 52.0447 130.942 53.9121 129.78 55.139C125.079 60.0998 116.082 58.2207 111.369 54.2653ZM123.314 24.6168C123.333 24.6674 123.316 24.6482 123.314 24.6168V24.6168ZM124.778 37.1362C124.583 37.2816 123.46 37.587 123.507 37.1484C123.57 36.5604 124.582 36.7729 124.778 37.1362ZM127.336 25.2615C127.073 25.0651 126.335 25.1458 126.875 24.4015C127.05 24.7289 127.193 24.995 127.336 25.2615ZM109.631 20.5566C109.967 19.6844 110.339 18.8728 110.49 17.9441C110.583 17.3719 110.398 16.7186 111.198 16.6288C110.178 16.1843 110.168 14.4298 110.108 13.5203C110.025 12.2679 109.629 10.5909 110.18 9.42512C110.745 8.22761 111.507 8.24741 111.737 9.6736C111.827 10.232 111.483 10.4126 111.418 10.8015C111.29 11.5708 111.545 11.4021 112.041 10.8161C112.246 11.4117 112.324 12.3069 113.158 12.269C113.102 12.1079 112.783 11.7526 112.89 11.5525C113.054 11.2451 113.855 11.7147 113.956 11.7858C114.688 12.2973 114.846 12.7642 114.325 13.4094C115.047 13.4872 114.441 14.1194 114.907 14.2841C115.618 14.5355 115.141 13.3446 115.064 13.1351C115.497 13.3039 115.642 13.497 115.916 13.8388C116.077 14.0747 116.223 14.3197 116.356 14.5731C116.503 15.0359 116.806 15.1516 117.266 14.921C118.187 15.21 119.458 15.1647 120.284 15.67C120.661 15.9006 120.797 16.4054 121.112 16.5971C121.467 16.8129 121.942 16.715 122.322 16.8504C122.183 17.167 122.296 17.3383 122.66 17.365C122.943 17.3909 123.217 17.4545 123.482 17.5561C123.68 17.4067 123.896 17.2885 124.129 17.2028C124.286 17.4785 124.507 17.5466 124.793 17.4078C125.642 17.5669 126.05 17.8882 126.59 18.3685C127.075 18.7996 126.68 18.8347 127.211 18.7963C127.425 18.781 127.799 18.4191 128.286 18.4898C128.567 18.5443 128.838 18.6311 129.099 18.7493C129.381 18.9904 129.68 19.0207 129.997 18.8405C130.511 19.0916 130.561 19.5372 131.189 19.5981C131.882 19.6657 131.659 18.801 132.135 20.0203C132.777 18.7276 133.012 20.7872 133.674 20.9535C134.36 21.1259 134.434 20.5697 135.021 21.1774C135.197 21.3596 135.187 21.6605 135.385 21.8535C135.708 22.1695 136.146 22.1063 136.428 22.5375C136.271 22.2969 136.465 23.3902 136.461 23.3541C136.505 23.8363 136.076 24.3768 136.955 24.3356C136.945 24.3862 136.523 25.0012 136.441 24.9316C136.421 24.8615 136.403 24.7903 136.39 24.7183C136.296 24.7589 136.254 25.3447 136.271 25.4481C136.346 25.4598 136.376 25.4045 136.363 25.2821C136.218 25.7338 136.436 26.0208 136.159 26.4497C135.981 26.7237 135.496 26.9298 135.237 27.0989C134.615 27.5072 134.005 27.9169 133.398 28.3516C131.981 29.3651 130.395 30.5875 128.611 30.7989C129.507 29.9191 134.662 26.5899 132.076 25.6342C131.597 25.457 130.724 25.2893 130.222 25.252C129.598 25.2059 128.953 25.563 128.265 25.3399C127.435 25.0715 127.748 24.2911 127.241 24.011C126.164 23.4172 126.418 24.814 126.079 25.1797C125.723 24.8062 125.799 24.6243 125.237 24.5906C124.666 24.5562 124.531 25.0838 123.865 24.755C122.947 24.3022 123.433 23.3999 122.131 23.3788C122.153 23.1808 122.342 22.6273 122.093 22.4729C121.758 22.9071 122.017 23.3927 121.707 23.8108C121.551 24.0205 121.213 24.1876 120.967 24.2555C120.39 24.414 120.308 24.7175 120.402 23.8486C119.974 24.619 118.663 24.3022 117.882 24.2246C116.614 24.0986 115.266 23.8586 114.05 23.452C112.926 23.0756 112.325 22.4293 111.398 21.841C111.047 21.6185 110.88 21.7036 110.377 21.5654C109.881 21.4291 109.397 21.1649 109.631 20.5566ZM112.307 6.91445C112.499 6.79908 112.636 8.52034 112.404 8.84195C111.979 8.16992 111.226 7.18419 112.307 6.91445ZM112.919 6.22785C113.534 5.67061 113.107 7.1099 112.994 7.35137C112.766 7.20516 112.538 7.05892 112.309 6.9127C112.6 6.73414 112.673 6.45011 112.919 6.22785ZM136.148 3.90827C141.837 5.10202 147.473 7.33332 152.036 11.0054C156.192 14.35 159.124 19.0955 160.769 24.1434C162.476 29.3829 161.902 35.1959 157.841 39.206C155.702 41.3182 152.877 42.5926 150.185 43.8361C148.895 44.4319 147.566 44.9281 146.271 45.5102C145.341 45.9283 144.205 46.5969 143.144 46.4812C143.686 45.9113 144.471 45.8996 145.127 45.5514C145.918 45.13 146.565 44.3218 147.248 43.7444C147.925 43.1711 149.428 41.366 150.469 41.803C150.325 40.8412 151.421 40.3948 151.914 39.7606C152.436 39.0898 152.474 38.3052 153.436 38.0857C152.403 37.2769 152.719 35.7519 152.944 34.651C153.232 33.2431 153.365 31.9506 153.478 30.518C153.683 27.9352 153.847 24.6449 152.42 22.3745C151.957 21.6371 151.367 20.9596 150.954 20.1936C150.456 19.2708 150.566 18.4586 150.566 17.4468C149.656 18.0587 149.464 16.8112 149.079 16.2032C148.79 15.7471 148.411 15.4923 148.318 14.9182C148.251 14.5008 148.704 14.4301 148.455 13.9923C148.151 14.2223 148.029 14.5789 147.875 14.9099C147.594 14.7975 147.925 14.4059 147.764 14.2788C147.759 14.2752 147.217 14.0396 147.244 14.0735C146.895 13.631 146.782 12.8968 146.611 12.3701C145.972 12.694 146.091 12.6559 145.378 12.1146C145.252 12.0194 144.625 11.5819 144.565 11.4388C144.289 10.77 144.773 11.1662 144.638 10.7511C144.249 9.55882 142.069 9.7843 141.897 7.99776C140.834 8.67271 140.428 7.71637 139.8 7.03619C139.156 6.33944 138.075 6.07143 138.133 4.96626C137.799 5.08074 137.464 5.19492 137.13 5.30881C137.303 4.289 135.788 4.35395 135.24 3.83662C135.544 3.8404 135.847 3.86429 136.148 3.90827ZM137.015 67.0723C137.542 66.6009 137.382 67.2284 137.721 67.1566C138.011 67.0951 138.069 66.876 138.347 66.8086C139.493 66.5316 141.207 66.8796 142.412 66.8198C143.808 66.7508 146.201 67.0406 146.866 68.6741C147.267 69.6576 146.655 69.323 145.981 69.2498C145.459 69.1934 144.994 69.2991 144.477 69.2938C144.222 69.3333 143.967 69.3294 143.713 69.2818C143.59 69.2003 143.516 69.0855 143.494 68.9375C142.775 68.8287 142.011 69.2543 141.214 69.2754C140.151 69.3038 139.206 69.0999 138.398 68.3821C138.077 68.8607 137.858 69.0983 137.281 69.1517C137.266 69.153 136.701 68.9261 136.614 68.9033C136.499 68.8732 136.206 69.1158 135.983 69.0465C136.379 68.4168 136.436 67.5894 137.015 67.0723ZM209.626 72.7566C209.814 72.1038 209.97 71.4424 210.142 70.7854C212.766 73.7729 215.062 77.7721 216.096 81.6034C216.767 84.093 217.812 88.6044 214.611 89.8885C212.004 90.9346 210.551 87.185 209.891 85.3382C208.435 81.2613 208.435 76.9046 209.626 72.7566ZM92.2151 25.9449C92.2488 25.9379 90.5163 26.9456 91.087 26.1298C91.3162 25.8016 92.1859 25.5711 92.5717 25.5711L92.2151 25.9449ZM90.5486 26.3718C90.348 26.5404 90.1455 26.707 89.9414 26.8713C89.7453 26.5615 89.5487 26.2514 89.3526 25.9415C89.7395 25.7786 91.3813 25.6562 90.5486 26.3718ZM89.3273 57.7C88.9649 57.4544 88.6776 57.5849 88.5685 57.9971C88.5685 57.5871 88.7821 56.6342 89.1103 56.5232C89.3225 56.4512 88.4053 55.3662 88.6631 55.0822C89.3187 55.4577 88.9262 55.8173 89.1181 56.3021C89.2049 56.5207 89.4652 56.7277 89.5223 56.8957C89.619 57.181 90.0104 58.1617 89.3273 57.7ZM87.5514 55.2583C87.1801 55.3534 87.8301 55.9661 87.8295 56.237C87.829 56.442 87.5831 56.5992 87.4816 56.8795C87.2616 57.4867 87.6401 57.8969 87.0171 58.3603C87.0171 57.0297 86.124 53.5038 87.8401 52.8555C87.0029 52.1963 87.6905 51.4353 88.3466 52.2244C88.9774 52.9829 88.5755 54.9963 87.5514 55.2583ZM86.6575 50.0074C86.3201 48.8114 85.3049 48.3931 84.1445 48.464C84.1888 47.8516 84.6527 46.9688 84.9878 48.0724C85.1258 47.7462 85.2212 47.3206 85.5355 47.1045C86.0648 48.7636 88.7031 49.6803 87.0605 51.4782C86.9261 50.9881 86.7957 50.4969 86.6575 50.0074ZM83.5913 48.553C77.4815 48.9961 68.9039 50.2638 64.0146 45.5806C60.8266 42.527 60.9968 37.7717 63.5732 34.379C65.0434 32.4429 67.0504 31.0798 69.066 29.7812C69.8437 29.2797 70.5026 28.949 71.3565 28.6609C71.4947 28.6458 71.6249 28.6767 71.7464 28.7535C71.7945 28.5471 71.9105 28.3947 72.0955 28.2948C72.4253 28.1185 72.8951 28.0554 73.0851 27.6891C72.8823 28.3772 72.778 29.0856 72.7038 29.7973C72.5391 29.6057 72.3747 29.414 72.2103 29.2224C72.0729 30.5191 70.7221 29.7342 69.9155 29.8961C70.4467 30.6314 70.8266 30.8985 70.8725 31.8703C70.4767 31.1396 69.6493 30.6593 68.88 30.4239C69.2977 31.6597 69.5931 32.3931 69.1726 33.7482C68.6644 33.4581 68.6302 32.7614 68.0139 32.5945C67.8512 33.4025 67.8225 34.2992 67.6142 35.0833C66.0361 34.3634 66.1899 36.302 66.8237 37.2613C67.1605 37.7717 67.326 38.3625 67.6267 38.8523C68.3643 40.0541 67.8039 38.257 68.6238 38.3422C68.4397 39.6096 68.3754 39.7359 69.303 40.664C70.2083 41.5691 70.6778 42.8248 71.646 43.6751C71.9264 43.3169 71.4855 42.9419 71.4469 42.599C72.3477 42.75 72.7697 43.6534 73.6358 42.8532C74.0135 43.5894 74.4224 44.4002 75.3268 44.5512C74.7289 43.4145 76.4753 44.1855 76.9231 44.3468C77.2627 44.4692 77.8712 44.5665 78.0022 44.6135C78.7401 44.88 78.2342 44.4019 78.682 45.2755C79.3395 45.0769 79.5876 44.5315 80.3741 44.9924C81.0136 45.3673 81.015 46.0092 81.1613 46.667C81.3137 46.2367 81.4675 45.8067 81.636 45.3823C81.8076 45.4546 82.5277 46.247 82.449 46.2506C84.1342 46.168 84.0747 47.2144 83.5913 48.553ZM75.0128 27.1036C75.3513 26.8661 75.7643 27.1823 76.1443 27.0972C76.6705 26.9798 76.9692 26.5292 77.5569 26.4808C77.3934 27.0035 77.0866 26.9545 76.8268 27.3648C76.7384 27.5047 76.7845 27.8401 76.7058 27.9207C76.0472 28.5952 75.8197 28.0448 75.1474 27.5341C75.2059 28.1499 75.3243 28.3443 74.7442 28.5096C74.219 28.6595 73.3521 28.1079 73.0873 27.6849C73.3106 27.2382 74.6079 27.3878 75.0128 27.1036ZM79.2051 26.141C79.7756 26.1955 79.0883 27.8787 78.2709 26.2461C78.5788 26.1791 78.8903 26.144 79.2051 26.141ZM82.1386 25.8158C83.0384 25.6323 86.0395 24.777 86.3735 26.1774C86.4333 26.1426 86.6566 25.3519 86.7604 25.4484C87.1759 25.835 87.2224 26.3473 87.1907 26.8841C86.6883 25.8378 86.8669 26.757 86.5265 26.6853C86.4377 26.6664 86.3017 26.8324 86.0767 26.764C85.7816 26.6739 85.5702 26.0461 85.3839 25.8336C85.0738 26.2761 84.6894 26.8463 84.0683 26.8079C83.6286 26.7807 82.9202 25.6489 83.4895 26.888C83.1552 26.7776 82.7683 26.5276 82.3959 26.5776C81.979 26.6341 81.7623 27.0455 81.3715 27.1119C80.5051 27.2588 80.3744 26.4252 79.812 25.9724C80.5877 25.9274 81.3726 25.9719 82.1386 25.8158ZM87.582 25.8022C87.6454 25.5152 88.4328 25.3992 88.6333 25.4904C89.1226 25.7126 88.9415 26.0061 88.8517 26.4942C88.4887 26.3223 88.1255 26.1507 87.7625 25.9788C88.3043 26.8516 87.3225 26.9781 87.582 25.8022ZM239.983 76.9222C239.918 74.8309 239.857 72.7032 239.327 70.6669C238.956 69.242 238.044 66.6868 236.32 66.4396C233.72 66.0663 232.28 71.2054 231.552 72.9693C231.406 70.8925 231.534 68.6819 230.749 66.7107C230.121 65.1309 228.534 63.6349 227.167 65.4088C225.951 66.9878 225.718 69.3183 225.398 71.2179C224.983 73.6794 224.734 76.1598 224.431 78.636C223.243 76.3409 223.036 73.7136 222.097 71.3283C221.211 69.0774 219.818 66.9277 218.475 64.9257C217.379 63.2903 216.044 61.7527 214.327 60.7531C212.832 59.8831 210.217 58.9419 208.792 60.3868C207.603 61.5925 207.789 63.206 207.851 64.7276C207.879 65.4052 207.985 65.8697 207.389 66.2112C207.096 66.3789 206.639 66.2922 206.317 66.3817C205.798 66.5266 205.401 66.7719 204.962 67.0979C201.887 69.3833 200.47 73.5019 200.031 77.1739C199.476 81.8265 201.29 85.815 202.851 90.0721C203.099 90.7504 203.889 92.1898 203.78 92.9472C203.66 93.7768 202.619 93.7985 201.916 93.8158C199.793 93.8681 197.574 93.7101 195.462 93.512C190.434 93.0417 185.409 90.6208 180.907 88.4595C180.085 88.0651 178.923 87.8392 178.252 87.2181C177.622 86.6343 177.456 85.6987 176.912 85.0289C175.576 83.3857 174.726 81.9837 172.759 80.9907C170.757 79.98 168.713 79.0457 166.76 77.9387C164.344 76.5689 162.112 74.8339 159.796 73.3003C155.494 70.4508 151.22 67.3271 146.659 64.904C144.539 63.7778 142.17 63.5956 139.969 62.6736C137.826 61.7758 135.195 61.7747 132.959 62.3415C131.87 62.618 131.128 63.2727 130.126 63.7002C128.952 64.2011 127.994 63.6482 126.961 63.0502C125.382 62.1368 123.818 60.6483 126.066 59.6628C126.828 59.3282 127.784 59.2017 128.45 58.676C129.16 58.1158 129.73 57.0823 130.308 56.3806C131.591 54.8205 132.358 53.0249 134.237 52.0547C136.314 50.982 138.777 50.6899 140.993 49.9888C143.393 49.2294 145.743 48.3263 148.099 47.4397C152.343 45.8423 156.755 44.1176 159.805 40.6009C162.435 37.5673 163.581 33.6511 163.475 29.6738C163.258 21.5431 158.903 13.2912 152.653 8.2075C144.991 1.97379 135.242 -0.104906 125.563 0.00403926C121.02 0.0553272 115.598 0.649839 111.808 3.40988C108.534 5.79382 107.99 9.96345 108.477 13.7273C108.674 15.2548 109.35 17.2707 108.272 18.6166C107.669 19.3698 106.587 19.5561 105.775 20.0256C104.755 20.6155 103.855 21.181 102.699 21.4928C97.7887 22.8189 92.6168 22.3572 87.5964 22.2838C79.2335 22.1614 70.6614 24.4257 64.4229 30.3185C59.3848 35.0769 57.8739 44.0497 64.0185 48.6885C68.9829 52.4361 76.7695 52.0239 82.6231 51.3702C84.4382 51.1672 85.6865 50.8724 85.6907 53.0933C85.6951 55.5192 85.2935 58.0547 85.9123 60.436C86.8872 64.187 90.4913 64.2762 93.6776 63.4685C95.3589 63.0424 96.9843 62.4016 98.5808 61.7305C100.923 60.7462 103.069 59.2987 105.382 58.3161C106.95 57.6502 108.124 59.8038 109.515 58.3108C109.772 58.0349 109.819 57.6238 110.207 57.4825C110.814 57.2614 111.833 58.0368 112.366 58.2822C113.163 58.6493 113.967 58.9194 114.286 59.8038C114.584 60.631 114.454 61.9466 114.168 62.7626C113.547 64.5368 111.876 64.1861 110.351 64.0674C107.69 63.8604 105.047 63.4213 102.387 63.2369C100.001 63.0716 97.7661 63.7845 95.708 64.9616C91.3846 67.4331 87.8476 71.3645 84.0992 74.5975C82.1698 76.2613 80.3049 78.0586 78.2069 79.5074C77.2946 80.1377 76.3067 80.7168 75.514 81.4997C74.7272 82.2763 74.6407 82.9824 74.3717 84.016C73.8925 85.8561 71.5128 86.7556 70.0253 87.7266C67.9218 89.0994 65.6917 90.0679 63.3334 90.9104C58.3395 92.6943 53.3061 93.9398 48.085 94.8604C45.5287 95.3116 42.9938 95.6078 40.4127 95.8512C38.1876 96.0609 35.8218 96.7462 33.5995 96.1988C34.2395 95.1605 35.3737 94.5372 36.2571 93.7348C37.3958 92.7004 38.3642 91.4744 39.2262 90.2045C40.9036 87.7313 42.0804 85.0776 42.3504 82.0779C42.5941 79.3781 42.3148 76.1487 40.6858 73.868C40.1231 73.08 39.0098 72.8659 38.5063 72.1561C38.0054 71.4507 38.1965 70.2361 37.9223 69.4137C37.2244 67.3215 35.1532 64.729 33.3303 63.5139C31.3527 62.1952 28.4599 61.711 26.1755 62.398C21.9434 63.671 19.3437 68.1938 17.4071 71.849C16.3493 69.6231 18.1208 66.3205 16.0542 64.4976C14.3112 62.9598 12.9277 65.9386 12.3448 67.2131C9.60821 73.1954 8.98658 79.5405 7.84011 85.9415C7.37284 85.4809 7.61231 84.2988 7.65626 83.7495C7.73803 82.7266 7.73024 81.7233 7.73247 80.6965C7.73803 78.1017 8.22032 75.4953 7.9992 72.9031C7.87154 71.4045 7.3937 68.2449 5.21661 68.7428C3.37027 69.165 2.21376 71.7614 1.63363 73.3487C0.79686 75.6383 0.603668 77.9048 0.655763 80.3235C0.713364 82.9958 0.204212 85.6244 0.0808591 88.2931C-0.158892 93.4767 0.0779403 98.6153 1.56526 103.618C4.00074 111.81 9.6007 118.617 17.0744 122.727C21.1922 124.992 25.7603 126.425 30.4569 126.733C33.0021 126.9 35.4591 126.597 37.9826 126.334C40.4727 126.074 42.976 125.954 45.4619 125.649C50.9979 124.97 56.3923 123.218 61.4243 120.859C64.073 119.618 66.564 118.094 69.1692 116.77C70.2147 116.239 70.9209 115.575 71.8132 114.836C72.6976 114.105 72.9424 114.047 73.9484 114.047C73.6533 113.258 74.5144 113.015 74.8977 112.515C74.8763 112.758 74.8546 113 74.8331 113.242C75.1252 112.608 75.3972 112.614 75.6489 113.26C75.8976 112.537 76.0817 111.793 76.3821 111.088C77.5305 111.669 77.4337 113.051 78.9696 112.042C80.2342 111.212 81.3971 110.232 82.6863 109.419C85.6231 107.565 88.1552 105.153 91.1004 103.321C91.1004 105.106 91.2264 106.906 90.9877 108.681C90.7608 110.37 90.1305 111.948 89.6291 113.564C88.7045 116.547 88.6406 119.734 87.6159 122.686C87.192 123.909 86.0881 124.931 85.7713 126.121C85.4487 127.335 86.1941 128.308 84.9447 129.105C84.0636 129.668 82.9625 129.905 81.9868 130.245C80.4987 130.764 79.0858 131.495 77.6373 132.116C70.8425 135.028 64.2148 137.993 57.9195 141.908C51.9452 145.622 45.8797 149.459 40.3915 153.871C35.6285 157.7 30.8137 162.651 29.6542 168.897C28.5291 174.956 31.5268 181.459 37.5459 183.455C40.6755 184.492 44.2137 184.363 47.4728 184.409C50.9798 184.457 54.6962 183.612 58.1443 183C61.7856 182.354 65.3646 181.344 69.0165 180.767C72.5205 180.213 75.734 178.976 79.1807 178.214C82.8515 177.402 86.6166 176.962 90.3077 176.232C91.9696 175.903 93.5975 175.418 95.2638 175.113C97.0881 174.78 98.9324 174.655 100.739 174.214C104.243 173.357 107.598 171.977 111.117 171.18C112.699 170.822 114.257 170.342 115.84 170.007C117.297 169.699 118.432 168.88 119.893 169.553C121.073 170.096 122.014 171.028 123.131 171.677C124.579 172.519 126.106 173.273 127.616 173.998C130.65 175.454 133.796 176.46 136.969 177.553C140.301 178.701 143.573 180.01 147.025 180.769C150.564 181.546 154.175 181.762 157.738 182.377C165.036 183.636 172.272 184.201 179.68 184.247C183.425 184.271 187.168 183.827 190.904 183.879C194.211 183.926 197.086 184.671 200.111 182.913C204.943 180.104 210.547 175.872 210.429 169.726C210.321 164.159 206.981 158.84 203.849 154.449C200.046 149.117 194.622 145.362 189.307 141.684C183.642 137.765 177.279 135.056 171.325 131.635C168.28 129.885 165.472 128.002 162.166 126.759C160.587 126.165 159.047 125.477 157.488 124.838C156.232 124.324 154.42 124.04 153.346 123.187C152.676 122.654 152.611 121.848 152.435 121.057C152.042 119.306 151.427 117.645 150.829 115.956C149.677 112.694 148.911 109.373 148.415 105.952C147.943 102.692 146.895 99.3009 147.438 95.9869C151.009 99.4413 154.678 102.762 158.332 106.124C159.701 107.385 161.045 108.671 162.421 109.924C163.454 110.864 164.747 112.261 166.187 112.54C168.027 112.896 167.355 110.862 168.618 110.546C169.39 110.354 171.718 112.315 172.328 112.702C176.197 115.158 180.48 116.715 184.735 118.386C189.197 120.139 193.785 121.696 198.586 122.137C203.021 122.546 207.555 122.022 211.835 120.814C220.357 118.408 226.628 112.699 231.231 105.299C236.475 96.8663 240.291 86.9884 239.983 76.9222Z" fill="black"/>
<path fill-rule="evenodd" clip-rule="evenodd" d="M109.731 58.5393C109.73 58.5421 109.715 58.5729 109.715 58.5729C109.733 58.5605 109.738 58.5494 109.731 58.5393Z" fill="black"/>
<path fill-rule="evenodd" clip-rule="evenodd" d="M110.141 58.6482C110.109 58.3796 110.04 58.1167 109.935 57.8592C109.652 58.3064 109.4 58.498 109.771 58.9717C109.894 58.8638 110.017 58.7561 110.141 58.6482Z" fill="black"/>
<path fill-rule="evenodd" clip-rule="evenodd" d="M129.794 122.575C130.109 122.239 129.557 122.113 129.348 122.108C129.368 122.468 129.19 123.332 129.683 123.499C129.565 123.173 129.602 122.865 129.794 122.575Z" fill="black"/>
<path fill-rule="evenodd" clip-rule="evenodd" d="M121.469 52.3087C120.927 53.3562 122.125 53.681 122.819 53.1751C123.34 52.7946 123.649 51.8247 123.735 51.2026C124.012 49.1894 122.603 47.2731 121.901 45.4866C121.719 45.0249 121.471 43.4412 120.886 43.3978C120.215 43.3478 120.165 44.8063 120.156 45.1826C120.13 46.3174 120.431 47.4733 120.783 48.5444C121.162 49.6992 122.103 51.0855 121.469 52.3087Z" fill="black"/>
<path fill-rule="evenodd" clip-rule="evenodd" d="M124.048 48.108C126.133 49.9643 127.8 46.8725 127.655 45.0438C127.619 44.5907 127.313 42.92 126.453 43.528C126.021 43.8334 126.389 44.826 126.184 45.2619C125.186 47.3746 124.226 44.0973 123.555 43.84C122.738 43.5266 122.656 44.5999 122.657 45.1737C122.659 46.3127 123.201 47.3537 124.048 48.108Z" fill="black"/>
<path fill-rule="evenodd" clip-rule="evenodd" d="M116.48 48.3964C116.971 47.6232 117.575 46.586 117.642 45.6596C117.745 44.2197 116.907 44.3398 116.216 45.3445C115.728 46.0542 115.362 47.258 114.285 46.9587C112.956 46.5899 113.362 44.8021 112.618 43.9527C110.738 46.477 114.295 51.8369 116.48 48.3964Z" fill="black"/>
<path fill-rule="evenodd" clip-rule="evenodd" d="M119.297 56.1216C120.074 56.2896 122.101 56.2278 121.399 55.0374C120.513 53.5383 117.568 55.7478 119.297 56.1216Z" fill="black"/>
<path fill-rule="evenodd" clip-rule="evenodd" d="M146.53 11.411C146.673 10.9873 146.477 10.9103 146.138 10.5766C145.817 10.8731 146.228 11.1851 146.53 11.411Z" fill="black"/>
<path fill-rule="evenodd" clip-rule="evenodd" d="M161.028 88.1618C161.541 88.2433 161.706 87.9721 161.523 87.348C160.714 87.2957 160.549 87.5669 161.028 88.1618Z" fill="black"/>
<path fill-rule="evenodd" clip-rule="evenodd" d="M133.025 22.6893C133.591 22.948 133.374 23.4786 133.364 23.927C133.656 23.6105 134.244 23.0314 134.004 22.5767C133.635 21.8755 132.67 22.5274 133.025 22.6893Z" fill="black"/>
<path fill-rule="evenodd" clip-rule="evenodd" d="M113.757 13.8626C113.67 13.6943 113.584 13.526 113.498 13.3578C113.147 13.6398 112.604 14.3852 113.163 14.7484C113.392 14.4706 113.59 14.1755 113.757 13.8626Z" fill="black"/>
<path fill-rule="evenodd" clip-rule="evenodd" d="M120.543 18.8108C121.247 19.3626 120.909 17.6685 120.888 17.5302C120.784 17.7288 120.188 18.5318 120.543 18.8108Z" fill="black"/>
<path fill-rule="evenodd" clip-rule="evenodd" d="M120.154 17.9505C120.101 17.8106 120.046 17.6704 119.993 17.5302C119.707 17.7945 119.358 18.3338 119.829 18.6428C119.959 18.4264 120.067 18.1955 120.154 17.9505Z" fill="black"/>
<path fill-rule="evenodd" clip-rule="evenodd" d="M124.624 23.7676C124.682 23.8204 124.739 23.8735 124.797 23.9269C125.029 23.4586 124.765 23.107 124.326 23.0925C124.358 23.3554 124.457 23.5804 124.624 23.7676Z" fill="black"/>
<path fill-rule="evenodd" clip-rule="evenodd" d="M105.765 76.4483C106.044 76.2583 106.298 76.0414 106.526 75.798C105.699 75.2929 106.194 76.3876 105.2 75.7154C104.986 76.0116 105.336 76.6747 105.765 76.4483Z" fill="black"/>
<path fill-rule="evenodd" clip-rule="evenodd" d="M140.486 122.386C140.8 121.904 140.857 121.918 140.427 121.552C140.069 122.148 140.106 121.995 140.486 122.386Z" fill="black"/>
<path fill-rule="evenodd" clip-rule="evenodd" d="M74.8175 45.6428C74.9886 45.8211 75.1596 45.9997 75.3307 46.1777C75.4105 45.9443 75.846 45.2846 75.5501 45.0651C75.3062 45.2576 75.0617 45.4501 74.8175 45.6428Z" fill="black"/>
<path fill-rule="evenodd" clip-rule="evenodd" d="M80.9026 47.4074C80.6295 47.3618 79.9762 47.1627 79.8251 47.4166C80.2248 47.744 81.1262 47.445 80.9026 47.4074Z" fill="black"/>
</svg>
