<svg width="284" height="224" viewBox="0 0 284 224" fill="none" xmlns="http://www.w3.org/2000/svg">
<path d="M76.5117 146.247C93.5428 146.247 107.349 132.387 107.349 115.29C107.349 98.1931 93.5428 84.3332 76.5117 84.3332C59.4807 84.3332 45.6743 98.1931 45.6743 115.29C45.6743 132.387 59.4807 146.247 76.5117 146.247Z" fill="#D0CDE1"/>
<path d="M68.1801 160.496L75.7656 165.214V133.318L67.2631 128.028C66.5602 127.591 66.0465 126.905 65.8239 126.105V126.105C66.6362 125.949 67.4771 126.106 68.1801 126.543L75.7656 131.262V118.893C75.7657 116.5 76.058 114.116 76.6361 111.795C77.2142 114.116 77.5065 116.5 77.5065 118.893V139.081L88.6973 132.119C89.5909 131.564 90.6248 131.277 91.6759 131.295C91.2235 132.247 90.5079 133.049 89.6143 133.605L77.5064 141.137V203.917H75.7656V167.27L67.2631 161.981C66.5602 161.544 66.0465 160.857 65.8239 160.058C66.6362 159.902 67.4771 160.058 68.1801 160.496V160.496Z" fill="#3F3D56"/>
<path d="M30.8374 148.876C47.8685 148.876 61.6748 135.016 61.6748 117.919C61.6748 100.822 47.8685 86.9617 30.8374 86.9617C13.8064 86.9617 0 100.822 0 117.919C0 135.016 13.8064 148.876 30.8374 148.876Z" fill="#D0CDE1"/>
<path d="M39.1691 163.124L31.5835 167.843V135.946L40.086 130.657C40.7889 130.219 41.3026 129.533 41.5252 128.734H41.5252H41.5252C40.7129 128.578 39.872 128.734 39.169 129.171L31.5835 133.89V121.521C31.5835 119.129 31.2911 116.745 30.713 114.424C30.1349 116.745 29.8426 119.129 29.8426 121.521V141.709L18.6518 134.748C17.7582 134.192 16.7243 133.906 15.6732 133.923C16.1256 134.875 16.8413 135.677 17.7348 136.233L29.8427 143.765V206.545H31.5835V169.899L40.086 164.61C40.7889 164.172 41.3026 163.486 41.5252 162.686H41.5252H41.5252C40.7129 162.531 39.872 162.687 39.1691 163.124V163.124Z" fill="#3F3D56"/>
<path d="M112.295 211.208C160.335 211.208 199.28 209.299 199.28 206.944C199.28 204.59 160.335 202.681 112.295 202.681C64.2544 202.681 25.31 204.59 25.31 206.944C25.31 209.299 64.2544 211.208 112.295 211.208Z" fill="#3F3D56"/>
<path d="M190.552 217.909C238.592 217.909 277.537 216 277.537 213.645C277.537 211.29 238.592 209.381 190.552 209.381C142.512 209.381 103.567 211.29 103.567 213.645C103.567 216 142.512 217.909 190.552 217.909Z" fill="#3F3D56"/>
<path d="M117.822 224C165.863 224 204.807 222.091 204.807 219.736C204.807 217.381 165.863 215.472 117.822 215.472C69.7818 215.472 30.8374 217.381 30.8374 219.736C30.8374 222.091 69.7818 224 117.822 224Z" fill="#3F3D56"/>
<path d="M53.2382 106.6C82.5613 106.6 106.332 82.7369 106.332 53.3001C106.332 23.8633 82.5613 0 53.2382 0C23.9151 0 0.143982 23.8633 0.143982 53.3001C0.143982 82.7369 23.9151 106.6 53.2382 106.6Z" fill="#D0CDE1"/>
<path d="M67.5831 131.132L54.5227 139.257V84.3385L69.1619 75.2319C70.3722 74.479 71.2566 73.2972 71.6398 71.9206L71.6399 71.9206H71.6398C70.2413 71.6524 68.7934 71.9214 67.5831 72.6742L54.5227 80.7988V59.503C54.5227 55.3833 54.0194 51.2791 53.0241 47.2823C52.0287 51.2791 51.5255 55.3833 51.5255 59.503V94.2616L32.2576 82.2757C30.7191 81.3186 28.939 80.8256 27.1293 80.8554C27.9082 82.4955 29.1404 83.8763 30.6789 84.8333L51.5255 97.8014V205.893H54.5227V142.797L69.1619 133.69C70.3722 132.937 71.2566 131.755 71.6398 130.379L71.6399 130.379H71.6398C70.2413 130.111 68.7934 130.38 67.5831 131.132Z" fill="#3F3D56"/>
<path d="M49.9748 213.934C49.6319 213.942 49.3006 214.061 49.0307 214.273C48.226 212.105 46.9802 210.712 45.5807 210.712C44.1812 210.712 42.9355 212.105 42.1308 214.273C41.8608 214.061 41.5295 213.942 41.1866 213.934C39.5967 213.934 38.3077 216.676 38.3077 220.057H52.8537C52.8537 216.676 51.5648 213.934 49.9748 213.934Z" fill="#3F3D56"/>
<path d="M80.8122 198.456C80.4693 198.463 80.138 198.582 79.8681 198.795C79.0634 196.627 77.8176 195.233 76.4181 195.233C75.0186 195.233 73.7729 196.627 72.9682 198.795C72.6982 198.582 72.367 198.463 72.024 198.456C70.4341 198.456 69.1451 201.197 69.1451 204.579H83.6911C83.6911 201.197 82.4022 198.456 80.8122 198.456Z" fill="#3F3D56"/>
<path d="M44.4474 202.545C44.1044 202.552 43.7732 202.671 43.5032 202.883C42.6985 200.715 41.4528 199.322 40.0532 199.322C38.6537 199.322 37.408 200.715 36.6033 202.883C36.3334 202.671 36.0021 202.552 35.6592 202.545C34.0692 202.545 32.7803 205.286 32.7803 208.668H47.3262C47.3262 205.286 46.0373 202.545 44.4474 202.545Z" fill="#3F3D56"/>
</svg>
