<?xml version="1.0" encoding="iso-8859-1"?>
<!-- Generator: Adobe Illustrator 19.0.0, SVG Export Plug-In . SVG Version: 6.00 Build 0)  -->
<svg version="1.1" id="Capa_1" xmlns="http://www.w3.org/2000/svg" xmlns:xlink="http://www.w3.org/1999/xlink" x="0px" y="0px"
	 viewBox="0 0 512 512" style="enable-background:new 0 0 512 512;" xml:space="preserve">
<g>
	<rect y="452" style="fill:#ACABB1;" width="30" height="60"/>
	<rect x="242" y="452" style="fill:#ACABB1;" width="30" height="60"/>
</g>
<path style="fill:#BCF7FC;" d="M272,467H0V65.148l23.952,17.816c18.574,13.816,44.521,13.816,63.096,0L96,76.306l8.952,6.659
	c18.57,13.813,43.525,13.813,62.096,0L176,76.306l8.952,6.659c18.574,13.816,44.521,13.816,63.096,0L272,65.148V467z"/>
<path style="fill:#97E5FD;" d="M272,65.148l-23.952,17.816c-18.574,13.816-44.521,13.816-63.096,0L176,76.306l-8.952,6.659
	c-9.285,6.906-20.167,10.359-31.048,10.359V467h136V65.148z"/>
<path style="fill:#FF9592;" d="M402,431H242V331h160c27.57,0,50,22.43,50,50S429.57,431,402,431z"/>
<rect x="256" y="401" style="fill:#EF509F;" width="241" height="30"/>
<path style="fill:#1C80B9;" d="M272,467H0V45C0,20.187,20.187,0,45,0h182c24.813,0,45,20.187,45,45V467z M30,437h212V45
	c0-8.271-6.729-15-15-15H45c-8.271,0-15,6.729-15,15V437z"/>
<rect x="81" y="153" style="fill:#4CBEFF;" width="30" height="254"/>
<rect x="161" y="153" style="fill:#26ABFF;" width="30" height="254"/>
<path style="fill:#093F61;" d="M272,45c0-24.813-20.187-45-45-45h-91v30h91c8.271,0,15,6.729,15,15v392H136v30h136V45z"/>
<rect x="482" y="286" style="fill:#AE2665;" width="30" height="226"/>
<g>
</g>
<g>
</g>
<g>
</g>
<g>
</g>
<g>
</g>
<g>
</g>
<g>
</g>
<g>
</g>
<g>
</g>
<g>
</g>
<g>
</g>
<g>
</g>
<g>
</g>
<g>
</g>
<g>
</g>
</svg>
